<?xml version="1.0" standalone="yes"?>
<svg xmlns="http://www.w3.org/2000/svg" width="2651" height="1682" viewBox="0 0 2651 1682">
<path style="fill:#11110b; stroke:none;" d="M0 0L0 1682L1010 1682C1008.95 1675.26 1006.86 1666.4 1004.55 1660.01C1001.97 1652.88 994.323 1644.86 1004 1639C1006.73 1622.89 1003.81 1608.12 1004.12 1592C1004.29 1583.77 1007.81 1575.13 1006.46 1567C1004.7 1556.46 998.38 1551.02 994.588 1541.91C991.68 1534.93 991.266 1522.57 991.329 1514.99C991.451 1500.43 995.516 1486.59 995.389 1472C995.217 1452.19 992.163 1431.89 993.613 1412C994.746 1396.45 1004.62 1383.4 1002 1367L1005 1368L1006.3 1345L1007 1334L1007 1333L1010.94 1309.01L1017.93 1280L1018 1264L1019.85 1235L1025.02 1213L1026.35 1196.71L1037.5 1166L1051.34 1116L1058.62 1103.09L1057.35 1066.09L1064.31 1046.71L1069 1036C1066.38 1015.27 1073.67 994.311 1076.77 974.004C1079.42 956.589 1076.42 938.555 1080.05 921C1081.58 913.617 1085.69 906.279 1086.75 899C1088.2 889.07 1086.92 878.998 1089.12 869C1091.96 856.137 1097.82 845.717 1098 832C1106.25 830.287 1110.45 807.433 1112 800L1113 780C1121.28 777.767 1120.95 765.071 1113.91 760.832C1108.2 757.397 1097.8 760.949 1091.29 760.046C1083.68 758.99 1076.37 753.005 1069 753C1066.07 748.749 1060.71 746.816 1057.37 742.71C1043.67 725.896 1035.06 706.956 1037.39 685C1037.93 679.962 1038.8 674.295 1041.46 669.92C1043.83 666.035 1048.57 661.916 1048.26 657C1047.75 649.063 1036.19 641.848 1029 642C1022.08 631.9 1004.45 633.975 996.637 622C989.395 610.906 984.179 593.325 984.179 580C984.179 572.395 987.951 564.524 984.995 557C976.745 536.002 951.432 526.221 944.705 504.996C938.671 485.954 939.309 463.673 954.465 449.365C961.705 442.529 971.786 439.855 978.826 432.826C992.243 419.434 1003.48 402.035 1023 396.509C1030.76 394.312 1035.98 400.683 1043 400C1048.98 417.59 1061.92 426.508 1074.49 438.884C1079.61 443.929 1083.34 451.11 1089.04 455.427C1094 459.181 1100.65 459.566 1105.71 463.573C1111.26 467.968 1113.76 482.324 1120.01 483.914C1125.15 485.218 1133.38 472.553 1139.72 471.15C1168.22 464.841 1195.66 484.279 1205 511L1251.59 454L1264 441C1275.97 441.259 1283.96 427.876 1295 424.483C1316.93 417.742 1325.06 449.862 1328 465L1330 464L1331 486C1337.52 486.849 1343.59 490.625 1350 492.251C1361.27 495.111 1375.63 492.617 1379.61 506.985C1382.92 518.976 1376.24 527.252 1376 538C1370.22 541.482 1368.84 548.859 1367.13 555C1364.16 565.654 1361.23 577.014 1356.41 587C1350.01 600.257 1340.26 610.283 1332.38 622.576C1328.32 628.908 1326.75 636.78 1322.54 643C1318.67 648.729 1312.72 653.176 1309.22 659.039C1304.82 666.417 1306.52 676.878 1302.91 685C1293.09 707.105 1277.67 717.966 1256 725.888C1251.31 727.603 1246.9 731.483 1242 732C1234.7 741.594 1219 757.712 1206 757C1203.47 759.71 1200.33 761.787 1198.39 765.04C1194.63 771.352 1190.96 797.728 1197 803L1198 811L1192 812L1189.28 824.714L1186.38 852L1187.21 879.001L1182 907L1179 908C1179.92 918.499 1169.96 927.679 1166.38 936.999C1162.01 948.383 1162.15 961.136 1160 973C1158.83 979.511 1154.82 985.394 1153.92 992C1152.8 1000.2 1154.44 1012.13 1146 1017L1148 1019L1147 1037C1142.5 1038.51 1143.51 1043.29 1141.05 1047C1132.8 1059.45 1130.51 1077.42 1128.72 1092C1127.15 1104.73 1121.52 1114.1 1117.38 1126C1113.14 1138.19 1109.7 1152.34 1106.75 1165C1102.99 1181.12 1105.01 1199.5 1103.91 1216C1103.31 1224.98 1098.21 1236.74 1100 1245C1088.26 1250.72 1092.4 1266.28 1090.79 1277C1089.29 1286.89 1083.57 1294.01 1080.13 1303C1077.03 1311.1 1076.86 1319.73 1073.69 1328C1072.31 1331.59 1069.34 1335.53 1068.69 1339.29C1066.71 1350.74 1071.29 1366.68 1070.99 1379C1070.79 1387.05 1067.54 1394.96 1067.58 1403C1067.6 1406.55 1070.12 1410.11 1069.72 1413.54C1067.97 1428.53 1059.37 1443.02 1059.34 1459C1059.32 1471.24 1058.71 1484.83 1060.3 1497C1061.07 1502.91 1065 1507.81 1064.87 1514C1064.62 1525.59 1058.52 1536.42 1058.18 1548C1057.96 1555.54 1063.02 1564.02 1062.1 1571C1061.4 1576.24 1056.29 1580.91 1054.63 1586C1051.13 1596.75 1050.87 1608.8 1051 1620C1051.15 1632.67 1059.86 1642.44 1060 1654C1052.89 1656.55 1048.25 1675.05 1047 1682L2046 1682C2046 1677.12 2042.48 1668.66 2043.66 1664.48C2044.57 1661.27 2048.94 1660.17 2050.26 1656.95C2052.04 1652.59 2050.38 1647.52 2050.8 1643C2051.25 1638.23 2053.55 1633.84 2053.91 1629C2055.13 1612.32 2051.49 1596.43 2051.17 1580C2050.85 1563.77 2054.66 1547.36 2055.01 1531C2055.11 1526.4 2057.09 1521.52 2056.67 1517C2056.27 1512.71 2053.21 1509.48 2053.02 1505C2052.53 1493.25 2054.48 1479.03 2047 1469L2047 1468C2050.93 1464.56 2049.28 1452.29 2050.5 1447C2055.53 1425.21 2056.23 1402.33 2062.92 1381C2065.39 1373.15 2066.37 1356.73 2076 1356L2088 1329L2093.14 1315.49L2102 1316L2100 1312L2104 1312L2101 1311L2105 1306C2102.63 1297.29 2105.02 1290.93 2112.3 1284.76C2114.39 1282.99 2118.44 1283.1 2119.8 1280.65C2122.65 1275.53 2122.02 1259.76 2121 1254C2128.7 1251.98 2128.29 1247.92 2128 1241C2137.95 1242.37 2141.63 1226.48 2143.5 1219C2147.9 1201.39 2156.71 1185.86 2163.95 1169.91C2166.73 1163.76 2167.16 1154.68 2172 1150C2171.41 1133.6 2191.65 1118.62 2188.32 1102C2187.28 1096.82 2181.63 1093.42 2179.04 1088.99C2176.42 1084.5 2176.38 1078.14 2173.4 1074.15C2171 1070.94 2166.52 1069.97 2163.73 1066.94C2155.91 1058.44 2149.78 1043.88 2148.76 1032.42C2148.18 1025.85 2154.92 1024.53 2155.85 1018.9C2158.21 1004.71 2151.98 992.555 2161.25 979.039C2166.12 971.947 2180.9 969.103 2182.68 960.91C2183.58 956.805 2181.82 952.218 2182.09 948C2182.97 934.135 2184.26 919.765 2186.13 906C2188.13 891.313 2193.88 877.055 2194.91 862C2195.79 849.102 2191.93 835.898 2194.67 823C2197.17 811.227 2206.89 804.684 2210.35 794C2215.82 777.108 2210.83 759.419 2225.75 745.836C2234.76 737.624 2244.97 739.155 2256 737.42C2265.75 735.885 2278.38 731.03 2287 726.526C2296.95 721.329 2303.38 711.021 2313.17 706.304C2319.17 703.411 2324.01 705.057 2330 704C2335.74 714.749 2349.79 719.889 2357.24 730.17C2364.67 740.418 2369.7 753.349 2375.88 764.424C2378.26 768.682 2379.26 774.123 2383.52 777.076C2391.93 782.904 2404.6 773.521 2413.83 776.513C2424.66 780.024 2432.23 793.161 2443.04 796.639C2455.35 800.598 2469.66 793.886 2482 795.959C2496.71 798.43 2502.98 812.225 2515.09 818.677C2521.38 822.028 2530.45 816.346 2538 819.268C2555.76 826.14 2557.91 841.748 2568.23 854.677C2572.09 859.524 2578.24 849.947 2580.77 857.113C2585.11 869.421 2578.84 898.13 2570.96 907.946C2564.89 915.516 2555.93 919.952 2549.46 927.151C2539.73 937.977 2535.26 953.045 2526.83 965C2520.98 973.286 2510.75 978.7 2506.46 988C2502.71 996.117 2514.18 1011.39 2513.98 1021C2513.71 1034.74 2503.12 1040.14 2498 1051L2495 1050L2494 1053L2490 1052L2472 1056C2466.86 1064.65 2457.93 1074.52 2447 1073L2439 1084C2430.58 1083.69 2429.42 1092.37 2425.2 1097.87C2422.32 1101.61 2417.56 1101.6 2414.06 1104.43C2410.8 1107.06 2409.93 1111.17 2407 1114C2406.05 1118.08 2403.9 1119.67 2400 1121L2400 1125C2405.2 1122.91 2409.53 1121.05 2410 1115L2419 1115L2424 1111L2423 1123C2417.01 1123.33 2412.79 1132.27 2409 1125L2408 1125C2407.34 1130.49 2407.46 1134.3 2402 1137C2399.44 1146.86 2384.43 1153.3 2375.17 1148.88C2368.62 1145.74 2365.87 1138.91 2359 1136L2344.87 1159.95L2335.41 1168.33L2325 1192C2319.74 1192.33 2308.08 1192.73 2305 1197C2294.3 1195.92 2293.08 1213.8 2283 1214C2268.6 1230.31 2251.71 1258.11 2249 1280L2232 1296L2232 1313C2217.38 1316.21 2214.7 1338.87 2209.7 1350.96C2196.99 1381.67 2174.95 1408.4 2165.43 1440C2163.06 1447.87 2155.21 1455.72 2156 1464C2152.6 1466.39 2151.72 1471.35 2149.76 1475C2141.92 1489.59 2142.29 1506.71 2139.37 1523C2138.22 1529.42 2133.46 1535.01 2131.12 1541C2127.98 1549.01 2126.63 1557.97 2123.43 1565.79C2113.75 1589.45 2102.07 1609.45 2108 1636L2107 1637L2104 1636C2098.41 1642.98 2094.11 1653.2 2092.05 1662C2090.43 1668.92 2090.95 1676.09 2085 1681L2085 1682L2651 1682L2651 0L0 0z"/>
<path style="fill:#a19d94; stroke:none;" d="M1029 642C1035.74 642.242 1047.51 649.78 1048 657.196C1048.46 664.057 1038.81 674.043 1037.46 681.911C1032.28 712.071 1048.89 733.671 1069 753C1075.83 753.488 1083.07 758.539 1090 760.144C1104.43 763.487 1117.2 754.293 1119 775L1120 775C1121.8 769.932 1135.06 763.462 1134.12 759.011C1133.49 756.048 1129.35 754.683 1127 753.526C1117.63 748.926 1110.12 749.538 1100 748.914C1081.39 747.765 1058.02 733.67 1051.93 715C1048.53 704.573 1044.63 692.022 1047.74 681C1051.82 666.523 1065.26 658.022 1054.68 642.17C1043.29 625.113 1017.91 629.241 1006.8 611.961C996.997 596.729 998.154 579.976 997.988 563C997.93 557.05 997.49 547.05 991 545C989.241 533.524 976.75 524.511 969.134 516.711C956.619 503.892 946.689 474.151 962.185 459.339C969.205 452.63 978.251 447.819 986 442L985 440C997.501 435.314 1005.55 421.07 1016.17 413.344C1020.25 410.378 1030.45 409.273 1034.66 412.603C1038.96 416.016 1044.41 425.337 1048 430C1064.45 434.444 1075.02 452.706 1086.32 463.9C1092.23 469.752 1099.9 473.367 1105.78 479.428C1109.42 483.182 1110.69 489.166 1115.13 492.142C1123.54 497.777 1130.92 483.941 1131 477L1120.01 483.249L1105.71 462.9L1090.02 455.427L1075.25 438.884L1056.75 423.701L1043 400C1036.22 399.385 1031.33 395.19 1024 396.134C1004.75 398.611 990.977 419.305 978.826 431.91C968.798 442.313 955.087 445.826 946.21 458.039C941.584 464.404 941.739 472.522 941.755 480C941.785 493.707 942.944 505.139 950.664 517.004C960.243 531.728 976.642 540.338 984.558 557C988.226 564.72 983.751 573.031 984.104 581C984.736 595.238 989.398 613.485 997.975 624.961C1005.75 635.36 1020.36 633.647 1029 642z"/>
<path style="fill:#e1d9c5; stroke:none;" d="M985 440L986 442C977.91 446.169 965.208 453.558 959.878 461.094C951.49 472.954 953.574 496.881 961.495 508.424C970.078 520.933 986.79 529.764 991 545C996.655 547.968 997.56 556.02 997.913 562.004C998.88 578.422 997.741 591.043 1003.92 607C1013.35 631.375 1046.73 624.028 1057.35 648C1063.22 661.229 1050.12 669.286 1047.43 681C1042.6 701.995 1053.57 722.317 1068.01 736.334C1082.91 750.799 1099.27 745.467 1117 749.684C1128.85 752.502 1139.23 758.637 1152 758.41C1163.57 758.204 1175.13 749.948 1186 746.683C1198.74 742.857 1209.78 743.902 1221.82 737.153C1229.25 732.983 1233.55 723.973 1241.01 719.482C1256.44 710.202 1272.74 710.156 1285.14 695C1290.55 688.379 1296.2 679.393 1298.29 671C1299.56 665.943 1298.7 659.835 1300.98 655.089C1304.2 648.409 1310.92 644.019 1314.7 637.834C1318.33 631.892 1319.65 624.38 1322.33 618C1324.01 614.007 1327.1 611.43 1327 607C1341.7 599.374 1349.77 580.301 1353.33 564.996C1355.22 556.916 1356.34 545.294 1362 539C1362.72 530.042 1372.35 524.076 1371.95 515C1371.74 510.234 1368.46 504.795 1363.95 502.857C1358.78 500.639 1351.22 501.139 1345.58 499.856C1335.74 497.622 1327.83 493.481 1319 489C1321.16 476.251 1317.14 458.496 1311.86 447C1308.03 438.665 1299.71 435.46 1291.83 439.823C1272.75 450.387 1260.24 463.913 1245.56 479.285C1230.65 494.896 1215.62 511.558 1206.35 531.089C1197.18 550.431 1199.18 576.753 1181.17 590.973C1176.55 594.622 1173.01 598.673 1166.71 599.026C1137.43 600.663 1105.45 568.243 1107.04 539C1107.77 525.57 1119.1 512.836 1116.66 499C1113.42 480.637 1097.55 475.055 1086.32 463.262C1079.22 455.796 1074.04 445.791 1064.96 440.33C1059.64 437.129 1054.04 430.982 1048 430C1046.18 426.436 1043.05 424.855 1040.57 421.816C1038.19 418.893 1037.99 414.12 1034.66 412.028C1016.4 400.576 998.24 432.88 985 440z"/>
<path style="fill:#a19d94; stroke:none;" d="M1264 441C1245.81 465.021 1220.2 484.314 1205 511C1202.32 500.769 1197.53 492.134 1188 487L1194 492C1194.58 497.234 1198.2 501.844 1199.48 507C1200.55 511.32 1199.45 515.981 1201.66 519.996C1203 522.448 1205.74 526.3 1208.97 525.963C1212.97 525.546 1214.16 519.977 1215.5 517C1219.02 509.188 1225.1 502.922 1230.42 496.325C1245.04 478.219 1260.56 461.537 1279.83 448.705C1285.24 445.104 1292.91 436.689 1300 437.873C1309.93 439.529 1310.96 448.506 1313.92 456C1315.8 460.765 1317.27 463.775 1317.42 469C1317.6 475.754 1319.36 482.143 1319 489C1332.99 499.243 1348.2 496.723 1362.98 502.857C1367.42 504.701 1371.54 510.192 1371.87 515C1372.49 524.006 1361.06 529.851 1362 539C1355.42 543.842 1355.01 558.465 1352.83 565.985C1348.14 582.15 1340.72 596.543 1327 607C1325.27 615.37 1319.16 630.615 1314.11 637.834C1310.17 643.482 1304.11 647.871 1300.98 654.17C1298.51 659.164 1299.59 665.682 1298.02 671C1295.66 679.032 1290.49 686.725 1285.73 693.486C1274.83 708.953 1257.78 711.109 1242 718.417C1233.87 722.188 1229.62 730.987 1222.68 736.102C1211.71 744.174 1197.87 744.502 1185 747L1185 750C1180.83 750.518 1179.08 753.079 1178 757L1196 760L1197 760L1199 758L1199 763L1206 757C1217.73 759.013 1236.92 741.889 1242 732C1247.36 731.82 1251.95 727.733 1257 725.888C1278.26 718.119 1293.25 707.738 1302.91 686C1306.54 677.835 1304.86 667.479 1309.22 660.015C1312.69 654.09 1318.66 649.729 1322.54 644C1326.78 637.744 1328.3 629.786 1332.38 623.424C1340.43 610.876 1350.77 600.778 1356.9 587C1363.26 572.688 1364 548.556 1376 538C1377.16 526.514 1383.84 517.596 1379.31 505C1374.53 491.711 1360.43 494.911 1349.58 491.802C1343.43 490.042 1337.38 486.428 1331 486L1330 464L1328 465C1326 449.514 1316.88 417.253 1295 424.005C1283.92 427.425 1275.79 440.554 1264 441M1540 662L1543 661C1543.95 666.24 1547.23 670.09 1549.03 675C1555.2 691.754 1560.54 706.131 1571.8 720.576C1576.82 727.017 1584.23 731.441 1589.01 738.039C1600.62 754.073 1603.55 773.67 1615.17 789.911C1618.97 795.221 1622.83 801.49 1628.01 805.53C1633.98 810.183 1641.8 811.944 1647.49 816.978C1653.39 822.204 1655.96 830.111 1661.21 835.981C1668.38 843.992 1682.54 854.946 1692.09 860.006C1705.05 866.878 1718.99 857.347 1719 878L1720 878C1720.82 871.464 1720.06 863.89 1726.13 859.584C1731.63 855.678 1742.34 855.684 1745 849C1748.38 849.343 1755.63 849.367 1758.35 846.98C1763.04 842.877 1753.48 841.051 1751 841.534C1748.59 842.004 1746.31 843.187 1744 844L1745 848L1738 848L1734 847L1734 848L1737 849C1731.02 851.618 1726.29 850.031 1720 850.001C1708.91 849.947 1697.52 850.256 1688.09 843.732C1684.28 841.097 1682.42 836.68 1678.7 834.005C1674.2 830.767 1669.65 829.064 1665.72 824.83C1660.5 819.208 1657.74 810.573 1652.57 805.648C1645.4 798.816 1634.69 797.151 1627.81 789.911C1611.18 772.411 1608.64 747.571 1595.92 728.09C1587.84 715.712 1573.12 707.287 1565.22 694C1560.72 686.421 1560.27 678.079 1557.59 670C1553.24 656.846 1548.47 644.336 1544.43 631.015C1540.9 619.341 1528.84 614.585 1527.46 601C1525.8 584.724 1530.24 573.524 1542.17 562.129C1549.03 555.583 1556.93 553.007 1560.11 543C1563.94 530.955 1552.37 527.618 1547.68 517.999C1544.87 512.227 1540.44 502.782 1539.9 496.424C1538.16 475.754 1556.73 452.333 1579 458.746C1588.26 461.414 1595.32 467.83 1604 471C1605.07 476.9 1611.12 482.764 1614.23 488C1619.74 497.278 1624.87 507.776 1632.51 515.487C1642.47 525.542 1657.64 531.326 1670 538.049C1677.19 541.959 1684.55 551.323 1692 553.482C1697.37 555.036 1704.72 551.789 1705 546C1719.28 538.389 1729.78 526.524 1748.17 532.299C1755.83 534.708 1761.89 540.78 1770 543L1777.54 552.218L1788 572L1799 575L1799.09 555L1802 535L1806 535C1805.17 526.982 1807.45 520.14 1810.62 512.911C1814.2 504.746 1814.15 495.758 1822.46 489.897C1825.21 487.955 1828.88 489.121 1832 488.532C1856.65 483.871 1863.83 501.215 1880.71 514.444C1889.34 521.211 1900.34 528.03 1905.7 538C1908.87 543.905 1909.17 552.449 1910.31 559C1912.21 569.886 1914.95 579.705 1913.9 591C1913.14 599.099 1909.65 606.21 1908.51 614C1904.53 641.013 1899.99 670.851 1885.12 694.714C1880.03 702.878 1873.15 712.231 1867.06 719.561C1862.85 724.628 1856.11 729.046 1853.18 735.004C1848.09 745.365 1861.58 758.033 1858.99 770C1855.38 786.613 1843.31 796.621 1832.26 808.464C1825.8 815.373 1820.56 823.166 1814 830L1814 831L1816 834L1811 837L1814 836L1824 838L1828 842C1825.79 831.841 1833.05 826.748 1839.38 819.626C1851 806.551 1867.93 795.176 1868 776L1870 777C1870.16 769.47 1870.47 763.356 1868.11 756C1866.94 752.333 1862.98 745.936 1864.4 742.129C1865.87 738.198 1871.83 735.144 1874.54 731.911C1881.73 723.329 1890 713.453 1895.79 703.911C1911.35 678.26 1916.24 649.944 1920.43 621C1922.25 608.396 1926.83 595.936 1926.54 583C1926.14 564.373 1920.83 538.713 1908.88 524.039C1898.76 511.617 1882.25 508.89 1878 492C1872.7 489.405 1869.15 484.117 1864 481.046C1856.04 476.294 1845.02 475.873 1836 476.444C1807.22 478.267 1804.06 500.817 1796.97 523C1792.89 535.77 1787.7 542.929 1790 557L1782 552L1783 549C1763.87 535.735 1749.53 523.154 1725 529.556C1717.35 531.554 1711.28 536.579 1705.17 541.255C1702.65 543.183 1699.42 546.33 1696 545.184C1688.28 542.599 1679.79 534.68 1672.83 530.225C1661.38 522.891 1645.52 518.988 1636.89 507.741C1620.14 485.906 1616.5 462.675 1588 451.073C1553.1 436.869 1521.08 470.63 1530.94 506C1533.09 513.735 1537.28 524.501 1541.92 530.999C1544.23 534.222 1549.81 538.53 1548.92 542.999C1547.61 549.525 1538.04 550.219 1533.9 554.26C1523.88 564.041 1513.5 583.819 1515.29 598.17C1518.28 622.187 1541.54 637.536 1540 662z"/>
<path style="fill:#e1d9c5; stroke:none;" d="M1806 535L1802 535C1800.51 546.77 1801.45 558.534 1800.01 570C1798.82 579.527 1796.68 588.16 1797.05 597.961C1797.66 613.859 1802.22 634.734 1795.36 649.961C1792.56 656.192 1786.77 660.212 1781.29 663.807C1753.44 682.071 1714.58 665.522 1697.88 639C1692.47 630.41 1686.43 612.409 1689.55 602.089C1694.23 586.63 1706.96 573.779 1695.7 558.09C1682.33 539.461 1659.13 534.158 1641.09 522.049C1628.19 513.391 1621.6 498.947 1613.69 486.167C1610.71 481.334 1605.7 476.35 1604 471C1595.23 466.167 1587.44 459.342 1577 458.13C1555.01 455.578 1534.67 476.396 1540.08 499C1541.79 506.171 1545.66 516.838 1549.94 522.826C1555.45 530.527 1563.65 533.265 1559.44 544C1552.69 561.209 1529.95 564.756 1527.22 585.424C1525.9 595.418 1526.59 607.484 1532.23 616C1535.66 621.171 1541.87 625.186 1544.11 631.015C1546.78 637.951 1547.23 645.901 1549.46 653C1551.53 659.586 1555.99 665.305 1557.9 672C1560.13 679.834 1560.93 687.774 1565.22 695C1572.94 707.989 1588.64 716.594 1595.78 729.128C1606.93 748.726 1611.24 772.954 1627.01 789.911C1634.04 797.465 1645.51 798.987 1652.57 806.394C1655.51 809.483 1656.15 814.258 1658.71 817.7C1664.49 825.446 1671.6 828.87 1678.7 834.652C1684.57 839.431 1687.43 845.174 1695 848.103C1715.53 856.048 1732.84 844.304 1752 840.684C1767.48 837.759 1784.48 845.505 1800 841.525C1811.61 838.549 1819.5 824.732 1826.47 815.996C1834.37 806.117 1845.13 798.365 1852.28 787.911C1857.74 779.916 1861.81 766.591 1859.29 757.001C1857.49 750.17 1849.24 742.612 1853.76 735.004C1862.32 720.581 1877.25 709.633 1885.62 694.714C1899.69 669.655 1904.26 641.669 1908.77 614C1909.32 610.611 1911.67 607.981 1912.33 604.714C1916.33 585.006 1914.54 556.626 1906.18 538C1900.42 525.152 1884.78 518.151 1875 508.871C1866.51 500.823 1862.21 491.554 1850 488.514C1843.1 486.798 1828.67 485.639 1822.46 489.333C1811.54 495.826 1803.91 523.166 1806 535z"/>
<path style="fill:#a19d94; stroke:none;" d="M1156.67 469.333L1157.33 469.667L1156.67 469.333z"/>
<path style="fill:#75b551; stroke:none;" d="M1133 477L1130 476L1124 492C1130.75 488.515 1135.8 481.067 1143 478.589C1167.59 470.127 1191.73 493.732 1200 514L1201 514L1194 492C1189.36 489.514 1179.69 482.445 1179 477C1168.17 470.404 1157.52 468.869 1145 470.361C1140.53 470.894 1133.8 471.787 1133 477z"/>
<path style="fill:#a19d94; stroke:none;" d="M1159 469L1160 470L1159 469M1140.33 470.667L1140.67 471.333L1140.33 470.667M1146.67 470.333L1147.33 470.667L1146.67 470.333M1138 471L1139 472L1138 471M1134 472L1134 475L1135 475L1136 472L1134 472M1130 475L1133 477L1132 474L1130 475M1174 474L1175 475L1174 474z"/>
<path style="fill:#b4c630; stroke:none;" d="M1114 492C1120.35 511.086 1105.69 525.918 1107.09 545C1109.65 579.916 1158.59 618.656 1187.58 586.74C1196.14 577.314 1199.43 556.957 1203.33 545C1205.34 538.836 1204.61 532.294 1210 528C1201.51 520.248 1200.92 512.654 1195.77 503.015C1190.13 492.488 1175 480.231 1163 478.286C1156.85 477.29 1145.53 476.412 1140 479.514C1130.45 484.875 1125.91 495.766 1114 492z"/>
<path style="fill:#a19d94; stroke:none;" d="M1178 478L1182 482L1178 478M1182 482L1182 484L1184 484L1182 482M1185 484L1186 485L1185 484M1186 485L1187 486L1186 485z"/>
<path style="fill:#75b551; stroke:none;" d="M1123 493L1124 494L1123 493M1708 543C1724.57 537.431 1736.1 528.706 1754 536C1745.23 522.762 1715.81 534.018 1708 543z"/>
<path style="fill:#b4c630; stroke:none;" d="M1692 554L1692 555C1709.51 570.703 1693.15 584.806 1689.3 602.089C1686.74 613.564 1692.11 631.677 1698.53 641C1705.5 651.122 1713.55 656.719 1724 662.575C1745.69 674.722 1780.52 677.858 1794.9 651.83C1800.22 642.201 1797.5 630.33 1798.09 620C1798.69 609.518 1796.58 599.494 1797.04 589C1797.22 584.973 1799.41 579.087 1796.97 575.419C1795.08 572.573 1791.07 572.27 1788 572C1784.65 547.266 1749.3 525.816 1726 534.619C1720.7 536.621 1714.54 538.995 1710.04 542.495C1703.5 547.589 1701.24 553.52 1692 554z"/>
<path style="fill:#75b551; stroke:none;" d="M1755 535L1756 536L1755 535M1764 541L1764 542L1770 544L1770 543L1764 541M1705 546L1706 547L1705 546M1775 549L1778 553L1775 549z"/>
<path style="fill:#a19d94; stroke:none;" d="M537 625L534 624L534 629L520 647L516 646L504.386 657.039L491.935 671.741L472 672L472 673L496 677.846L514.385 662.88L536.625 645.701L553 626L554 629L556 629L560 625C559.969 618.619 559.444 607.853 566 605C567.497 611.976 576.661 625.837 584 627C584.225 630.357 585.456 632.883 586.502 636.039C587.733 639.757 588.989 646.649 592.43 648.972C598.697 653.205 604.867 647.487 610.089 645.177C615.863 642.624 623.817 640.59 630 638.479C636.504 636.259 643.386 637.575 650 636L651 639L656 639L655 641L672 653L675 652L677 654L676 656L684 663C683.106 670.582 688.62 678.25 691.466 684.961C695.843 695.28 699.439 707.789 699.29 719C698.945 744.9 696.8 770.538 692.076 796C690.374 805.178 682.709 812.391 683 822L672.038 850.999L657.696 881.845L645.895 930L637 952C631.919 953.18 628.538 960.315 625.961 964.576C621.953 971.205 615.691 977.658 609.91 982.802C598.562 992.899 582.79 997.142 569 1002.47C560.796 1005.64 552.842 1011.07 545 1015.03C535.789 1019.69 521.969 1024.11 520 1036L528 1040L529 1048L530 1048C529.403 1032.88 540.644 1028.06 553 1022.42C570.394 1014.49 588.547 1007.29 605 997.482C613.528 992.4 619.711 984.231 628 979C628.094 972.852 633.692 968.76 637.023 964C641.983 956.914 647.525 947.189 650.25 939C657.123 918.343 658.377 896.433 666.268 876C669.069 868.746 674.323 863.011 677.486 856C682.661 844.531 685.675 831.908 689.795 820C700.439 789.23 712.339 751.782 704.745 719C703.223 712.43 704.081 705.632 702.639 699C699.844 686.144 692.592 669.163 685.687 657.961C681.634 651.386 674.587 641.906 666 643C664.204 639.537 661.907 636.803 658.996 634.174C649.11 625.242 639.39 624.294 627 628.825C622.151 630.598 614.232 635.147 609 634.327C595.096 632.149 587.145 614.07 584 603C588.963 598.069 577.514 586.733 571.996 586.728C553.499 586.711 540.924 610.053 537 625z"/>
<path style="fill:#e1d9c5; stroke:none;" d="M560 625L556 629L554 629L553 626C545.368 630.641 542.294 639.629 535.795 645.701C522.883 657.764 504.19 664.407 498.713 683C495.953 692.37 506.51 698.216 512.385 702.974C520.913 709.881 526.496 718.113 528.532 729C530.705 740.613 532.276 766.684 525.982 776.999C519.402 787.785 506.894 792.86 499.239 803.001C492.684 811.684 490.104 822.845 483.035 831.576C474.958 841.55 468.272 843.102 457.576 848.213C452.132 850.814 444.836 855.076 439.213 850.424C426.27 839.714 432.2 814.356 428.061 800C425.619 791.53 418.332 782.996 414.258 775C409.241 765.151 406.518 753.064 400.367 744C394.498 735.354 386.065 728.737 381.745 718.996C376.909 708.09 383.303 690.344 374.87 682.159C363.632 671.252 350.133 687.089 339 685.096C329.22 683.345 322.554 672.576 314.961 666.479C309.894 662.411 305.359 665.295 300.375 662.842C292.849 659.138 284.949 646.126 281 639C269.747 642.652 261.333 655.59 259.329 667C258.094 674.026 260.879 683.371 253 687C250.006 697.606 231.985 710.338 222 711C220.06 721.452 221.996 731.528 222 742C222.008 761.626 221.633 781.386 221.064 801C220.83 809.074 225.519 827.634 232 833C231.587 843.772 243.331 849.32 248 857C260.858 859.677 264.832 877.883 272.174 887C280.284 897.072 290.547 908.112 297.031 919.272C302.623 928.897 303.384 940.392 309.093 950C314.994 959.93 324.323 966.403 330.525 976C335.214 983.256 335.05 994.36 341.533 1000.45C345.818 1004.48 355.738 1013.44 361.004 1015.54C365.397 1017.29 370.411 1015.06 374.961 1016.18C380.945 1017.65 400.456 1027.68 402 1033C406.371 1035.38 408.788 1041.28 410 1046C414.296 1046.72 415.917 1050.96 420 1053C421.866 1053.93 425.017 1052.78 426 1053C432.459 1054.44 442.192 1062.2 451 1060C455.995 1058.75 464.331 1059.13 468 1055C472.126 1050.36 474.461 1039.72 481 1037C492.63 1032.15 508.925 1038.15 520 1032C525.886 1028.73 529.956 1021.85 536 1018C538.733 1016.26 543.172 1017.41 546 1016C554.162 1011.92 560.803 1006.1 569 1002C574.863 999.068 582.876 998.552 589 996C603.952 989.77 620.613 977.051 627 963C628.703 959.254 635.772 951.693 637 952L645.895 931L662.682 869L672.519 850.985L683 822C683.3 813.05 690.169 806.52 691.901 798C697.158 772.143 700.148 744.427 699.545 718C699.093 698.217 684.901 681.843 684 663L676 656L677 654L675 652L672 653L655 641L656 639L651 639L650 636C636.432 638.519 624.326 640.923 611.039 644.451C605.038 646.044 601.242 652.348 594.109 649.397C588.523 647.085 584.731 632.611 584 627C576.647 624.906 568.513 611.996 566 605C558.956 607.103 559.604 618.798 560 625z"/>
<path style="fill:#a19d94; stroke:none;" d="M273 621L265 630C263.636 646.792 243.382 661.126 247 680C240.496 683.528 233.658 690.586 230 697C213.23 695.545 207.14 717.028 209.289 730C210.264 735.887 213.792 740.756 213.822 747C213.859 754.638 212.247 762.345 211.964 769.999C211.219 790.154 211.139 811.756 218.133 831C221.748 840.947 227.778 853.203 234.684 861.289C240.609 868.228 248.423 872.929 253.973 880.424C272.323 905.204 287.106 931.312 302.514 957.961C307.884 967.249 321.218 973.761 324 984L327 984C327.016 1008.15 342.564 1014.97 359 1029L376 1028L383 1037L385 1036C387.715 1039.61 392.853 1039.81 396.231 1042.97C409.185 1055.12 414.387 1067.66 414 1085L416 1085C415.962 1080.41 414.623 1075.49 415.947 1071.01C417.258 1066.58 421.66 1064.31 423.062 1060C425.168 1053.53 415.128 1047.5 410 1046C409.303 1041.2 406.855 1034.59 402 1033C401.182 1027.87 380.611 1016.48 374.961 1015.74C370.804 1015.19 365.788 1017.03 361.831 1015.48C355.935 1013.17 348.524 1005.04 343.185 1001.12C335.043 995.132 335.258 981.958 329.841 974C323.641 964.893 314.824 958.646 309.093 949C303.586 939.729 302.247 928.882 297.469 919.272C292.036 908.344 280.848 896.409 273.015 887C266.442 879.102 260.066 856.719 248 857L232 833C214.964 811.694 221.374 777.963 221.985 753C222.331 738.892 220.228 725.019 222 711C224.735 710.956 228.473 711.996 231 710.858C236.712 708.286 251.982 692.922 253 687C261.4 684.626 258.016 673.559 259.529 667C262.228 655.305 270.089 644.027 281 639C283.594 646.085 293.151 660.288 300.336 663.349C305.214 665.428 309.113 662.667 313.985 666.48C322.528 673.165 329.519 684.93 341 685.642C347.487 686.044 352.568 679.961 359 679.387C369.656 678.436 384.669 683.544 391 672L389 670L353.576 670.349L338.705 675.441L326 662L326 665C309.96 651.971 295.038 624.32 273 621z"/>
<path style="fill:#e1d9c5; stroke:none;" d="M556 623L557 624L556 623z"/>
<path style="fill:#75b551; stroke:none;" d="M388 671L391 672L388 677C396.061 676.192 402.923 671.073 411.039 670.129C428.479 668.1 446.328 672.043 463 676.24C470.805 678.205 482.963 684.248 489 677L468 672C464.442 666.511 452.576 668.006 446.576 667.189C432.893 665.327 417.954 659.36 404 662.684C398.045 664.102 393.514 668.531 388 671z"/>
<path style="fill:#a19d94; stroke:none;" d="M431 663L432 664L431 663M432 664L432 665L437 665L432 664M437 665L437 666L454 668C448.914 665.147 442.736 663.881 437 665M390 670L396 667L390 670M455 667L455 668L460 669L455 667M467 669L468 670L467 669z"/>
<path style="fill:#b4c630; stroke:none;" d="M373 679C374.707 682.749 377.83 685.87 378.655 690C380.793 700.701 376.983 710.236 382.193 720.961C386.853 730.553 395.487 737.082 401.013 746C406.237 754.43 408.88 765.009 413.259 774C417.377 782.453 423.914 790.459 427.387 799C433.491 814.011 425.937 836.669 437.637 849.656C444.131 856.864 464.257 848.227 471 843.981C486.621 834.145 489.036 817.56 499.239 804C509.378 790.525 526.563 785.162 528.714 767C530.571 751.325 531.519 729.301 524.164 715C518.532 704.047 500.93 699.612 498.681 687C497.961 682.963 501.246 678.912 502 675C483.707 684.198 469.508 676.006 451 672.375C438.708 669.964 425.492 669.798 413.004 670.005C399.016 670.236 387.382 680.05 373 679z"/>
<path style="fill:#a19d94; stroke:none;" d="M468 670L468 672L470 670L468 670M470 671L471 672L470 671z"/>
<path style="fill:#b4c630; stroke:none;" d="M502 674L503 675L502 674z"/>
<path style="fill:#a19d94; stroke:none;" d="M2187 1111L2188 1111C2189.69 1106.94 2191.44 1100.67 2196.01 1099.13C2204.61 1096.23 2212.49 1103.12 2219.91 1106.12C2232.84 1111.34 2251.21 1108.72 2257 1125L2258 1125C2258.09 1123.24 2259.29 1108.63 2256 1113L2255 1113L2248 1107L2251 1103L2248 1100L2217 1104L2216 1099L2210 1096L2206 1096C2205.56 1087.47 2192.18 1089.6 2187.1 1085.57C2179.56 1079.59 2184.75 1071.51 2181.06 1064.44C2178.75 1060.01 2173.9 1059.92 2170 1057.72C2163.71 1054.18 2156.63 1043.03 2160 1036L2161 1031L2158 1030C2170.4 1019.28 2155.28 1002.27 2166 990L2166 989L2166 988L2164 986L2189 974C2190.68 963.901 2184.85 945.382 2191 937C2187.4 924.552 2192.36 907.891 2195.83 896C2200.42 880.273 2201.88 863.872 2200.33 848C2199.97 844.305 2202.09 827.543 2203 829L2204 829L2212.35 807L2222 774L2221 774L2221 776L2220 776L2224 770L2228.99 761.219L2239.02 750.089L2272 745C2274.45 732.144 2301.14 732.376 2309.72 726.972C2312.87 724.99 2317.73 715.438 2320 712L2321 712C2332.23 719.818 2345.53 725.479 2352.95 738.174C2358.3 747.33 2363.67 757.45 2368.37 767C2371.13 772.595 2373.69 780.226 2379.92 782.816C2387.09 785.799 2395.34 779.945 2402 778L2402 777L2385.18 777.556L2376.37 764.424L2357.24 729.286L2330 704C2323.48 704.218 2318.54 703.208 2312.29 706.304C2302.07 711.362 2295.82 722.228 2285 727.03C2276.75 730.692 2266.12 735.25 2257.17 736.945C2245.66 739.127 2234.36 737.107 2225 745.836C2210.71 759.174 2215.6 776.556 2210.35 793C2206.94 803.682 2197.16 810.235 2194.67 822C2191.92 834.943 2195.77 848.098 2194.91 861C2193.9 876.056 2188.13 890.314 2186.13 905C2183.68 922.964 2185.51 942.417 2182.61 959.961C2181.14 968.815 2165.41 971.318 2160.61 979.039C2157.88 983.442 2153.56 994.939 2153.72 1000C2153.91 1006.12 2156.85 1011.69 2155.85 1017.96C2154.99 1023.36 2148.5 1024.86 2148.34 1030.72C2148.03 1042.02 2155.41 1058.66 2162.89 1066.94C2165.93 1070.32 2170.82 1071.35 2173.4 1075.06C2176.11 1078.96 2176.13 1084.69 2178.49 1088.99C2183.39 1097.92 2189.14 1099.94 2187 1111z"/>
<path style="fill:#e1d9c5; stroke:none;" d="M2320 712C2316.17 715.894 2313.12 724.525 2308.87 726.972C2300.54 731.764 2273.24 732.372 2272 745L2237.13 750.573L2230.2 758.999L2224 770L2220 776L2221 776L2221 774L2222 774L2212.35 806.015L2204 829L2203 829L2202 827C2198.26 839.658 2203.39 853.271 2201.17 865.911C2197.52 886.684 2184.79 915.983 2191 937L2189.1 945.745L2189 974L2164 986L2166 988L2166 989L2166 990C2153.69 999.38 2168.08 1017.89 2158 1030L2161 1031L2158 1032L2160 1036C2150.2 1049.06 2175.04 1057.5 2179.97 1063.63C2184.56 1069.35 2179.7 1077.67 2184.6 1083.89C2188.3 1088.6 2194.88 1087.96 2200 1090.23C2215.3 1097.04 2230.61 1104.09 2248 1100L2251 1103C2250.06 1109.39 2257.79 1111.33 2259.58 1117.2C2261.34 1122.98 2261.52 1128.59 2264.72 1133.96C2267.18 1138.08 2271.37 1140.93 2273.69 1145.09C2276.1 1149.41 2276.15 1154.77 2279.65 1158.61C2283.36 1162.67 2289.67 1164.68 2293.93 1168.75C2298.07 1172.69 2302.06 1181.32 2308 1182.4C2323.25 1185.15 2325.14 1168.91 2331.12 1160.23C2333.38 1156.96 2337.77 1156.58 2340.27 1153.52C2342.68 1150.57 2342.75 1146.32 2344.55 1143.01C2347.69 1137.29 2354.27 1131.9 2354.77 1125C2355.35 1116.77 2348.95 1114.34 2344.79 1108.68C2339.13 1100.98 2334.08 1092.12 2331 1083L2332 1082C2346.74 1087.11 2356.47 1079.76 2370 1076.12C2376.87 1074.28 2385.82 1075.72 2393 1075L2399 1059L2401 1061L2411 1052C2414.23 1064.33 2394.65 1069.49 2397.22 1083.96C2398.72 1092.39 2409.17 1091.31 2414.58 1087.66C2429.58 1077.5 2440.33 1061.99 2456 1052L2456 1054L2461 1047C2467.5 1045.9 2472.85 1042.67 2479 1040.7C2483.21 1039.35 2487.76 1040.71 2491.96 1039.35C2502.63 1035.9 2510.09 1022.79 2507.41 1012C2505.81 1005.56 2501.72 997.512 2497.73 992.224C2496.01 989.941 2490.76 987.837 2491.6 984.406C2494.46 972.62 2513.41 968.518 2520.36 959.826C2531.74 945.592 2532.15 928.361 2537 912L2535 912C2538.64 899.48 2539.53 892.704 2549.58 882.576C2554.01 878.111 2566.07 874.06 2567.44 867.96C2568.42 863.584 2564.68 860.422 2562.7 857C2557.7 848.373 2555.75 841.721 2547.83 834.611C2543.33 830.572 2537.45 825.462 2531 825.63C2525.67 825.768 2521.53 829.083 2516 827.232C2506.41 824.023 2499.58 814.033 2490 810.283C2481.41 806.921 2466.09 810.383 2457 811.576C2452.96 812.106 2444.69 810.136 2441.51 812.693C2437.76 815.71 2439.29 822.891 2437.25 827C2433.78 833.97 2429.83 840.453 2427.57 848C2423.37 862 2422.69 877.311 2410.91 887.772C2407.22 891.044 2403.32 890.322 2399 891.814C2387.81 895.68 2369.38 901.433 2359.23 892.239C2354.67 888.114 2355.38 881.568 2354.83 876C2353.66 864.102 2353.02 852.983 2353 841C2352.98 829.041 2342.97 818.226 2346.65 806C2350.98 791.609 2368.91 798.217 2373.39 787.695C2377.09 779.02 2369.2 767.04 2365 760C2352.63 739.253 2344.03 720.829 2320 712z"/>
<path style="fill:#b4c630; stroke:none;" d="M1185 746L1185 747L1188 747L1185 746M1131 755L1131 756L1133 761L1133 762C1140.98 763.329 1150.91 768.698 1162 765C1167.12 763.293 1174.98 757.244 1178 758C1179.25 753.294 1181.66 751.036 1186 749C1179.24 745.05 1162.49 755.922 1155 757.691C1147.29 759.511 1138.6 755.925 1131 755z"/>
<path style="fill:#75b551; stroke:none;" d="M1176 757C1170.15 762.557 1158.07 766.121 1150 765.571C1144.54 765.199 1137.38 761.941 1132 763.296C1117.23 767.016 1113.68 787.902 1110 800C1112.88 806.239 1104.62 829.71 1098 832C1097.52 844.872 1092.48 854.942 1089.35 867.001C1086.61 877.563 1088.35 888.56 1086.5 899C1085.14 906.693 1080.9 914.068 1079.55 921.911C1075.64 944.609 1077.05 967.385 1072.74 989.911C1070.76 1000.32 1069.31 1011.44 1068.13 1022C1067.35 1028.92 1069.93 1034.97 1064 1040L1062 1048L1063 1055C1050.6 1065.59 1063.36 1089.65 1057.93 1104C1056.53 1107.72 1053.22 1110.33 1051.7 1114C1045 1130.18 1042.23 1148.37 1037.5 1165C1034.64 1175.08 1029.11 1184.59 1026.79 1195C1024 1207.48 1020.64 1222.32 1019.5 1235C1018.63 1244.66 1020.26 1254.51 1018 1264C1023.44 1277.46 1012.81 1295.02 1010.81 1308.04C1009.59 1315.96 1011.08 1325.97 1007 1333L1007 1334L1005 1368L1002 1368L1001 1374L1003 1374L1000.43 1389L993.415 1412L995.161 1457L994.897 1489.29L991.257 1517.99L994.727 1542.42L1006.11 1567L1003.6 1600.71L1004 1639C999.819 1640.22 998.771 1644.89 999.069 1649C999.381 1653.29 1002.68 1656.13 1004.19 1660C1006.79 1666.69 1005.12 1674.33 1011.15 1679.78C1017.76 1685.75 1038.4 1682 1047 1682L1060 1647L1059 1645L1056 1645C1055.52 1632.92 1050.21 1621.87 1051.09 1609C1051.58 1601.9 1052.43 1593.79 1054.63 1587C1056.08 1582.54 1059.66 1578.75 1060.16 1574C1061.26 1563.56 1057.18 1553.46 1058.85 1543C1060.23 1534.34 1069.85 1510.66 1061 1504C1062.13 1488.56 1058.32 1472.54 1059.68 1457C1060.98 1442.16 1068.79 1427.36 1069.36 1412.96C1069.5 1409.24 1067.75 1405.77 1067.91 1402C1068.39 1390.21 1071.45 1378.95 1071.29 1367C1071.18 1358.53 1067.82 1347.24 1069.18 1339.29C1070.2 1333.35 1074.53 1326.79 1076.56 1321C1080.14 1310.81 1082.19 1302 1086.78 1291.96C1093.36 1277.55 1086.01 1254.79 1100 1245C1098.83 1236.59 1103.41 1225.99 1103.91 1217C1104.83 1200.91 1103.75 1183.9 1106.32 1168C1108.41 1155.16 1113.31 1141.54 1116.76 1129C1119.28 1119.85 1126.53 1111.42 1127.86 1102C1130.46 1083.45 1131.39 1063.25 1141.78 1047C1144.14 1043.32 1143.04 1039.3 1147 1037L1146 1017C1151.13 1015.21 1152.8 1008.02 1153.51 1003.04C1155.6 988.409 1159.51 974.749 1161.17 959.999C1163.22 941.833 1173.75 928.514 1179.38 912.039C1183.08 901.231 1187.21 887.52 1187.74 876C1188.09 868.26 1185.53 859.531 1186.66 852C1187.94 843.429 1187.95 834.592 1189.43 826C1190.36 820.674 1193.21 817.603 1192 812C1196.71 809.03 1195.59 803.907 1195.05 799C1193.56 785.305 1200.92 770.836 1199 758L1197 760L1176 757z"/>
<path style="fill:#a19d94; stroke:none;" d="M1134.67 762.333L1135.33 762.667L1134.67 762.333z"/>
<path style="fill:#75b551; stroke:none;" d="M1138 763L1139 764L1138 763z"/>
<path style="fill:#a19d94; stroke:none;" d="M1706 772C1712.01 773.302 1716.93 771.213 1722 768C1716.86 760.101 1707.02 762.87 1706 772M1830 770L1833 769L1832 766L1835 765C1831.12 762.811 1830.26 766.6 1830 770z"/>
<path style="fill:#75b551; stroke:none;" d="M1147 764L1148 765L1147 764z"/>
<path style="fill:#a19d94; stroke:none;" d="M1828 770L1827 772L1829 772L1828 770M2405 778C2410.8 777.778 2418.46 779.752 2420 786C2423.48 785.876 2424.24 788.982 2424 792L2432 800C2437.43 802.765 2438.88 810.326 2445.04 811.656C2458.76 814.617 2474.75 805.865 2488 809.934C2498.51 813.161 2505.57 824.846 2516 827.525C2522.28 829.139 2527.97 824.862 2534 826.318C2547.49 829.573 2556.88 844.496 2561.7 856C2563.19 859.571 2567.56 862.846 2567.21 866.985C2566.64 873.737 2555.49 875.74 2551.29 879.951C2540.37 890.876 2538.14 897.749 2535 912L2537 912C2534.11 918.988 2534.84 927.542 2532.73 935C2530.89 941.447 2524.54 953.481 2520.36 958.91C2513.09 968.362 2495.01 971.68 2491.37 983.982C2490.18 987.992 2495.03 989.679 2497.09 992.224C2501.29 997.438 2505.22 1005.56 2507.04 1012C2510.12 1022.92 2501.55 1036 2490.99 1039.35C2486.77 1040.68 2482.22 1039.34 2478 1040.7C2472.23 1042.55 2466.94 1045.41 2461 1047L2456 1054L2456 1052C2438.67 1059.72 2428.99 1077.57 2413.71 1087.65C2407.5 1091.76 2397.82 1091 2397.12 1082C2396.13 1069.13 2415.21 1063.83 2411 1052C2405.92 1054.09 2402.75 1055.59 2401 1061L2399 1059L2393 1075C2386.14 1075.13 2376.65 1074.01 2370 1075.69C2355.57 1079.33 2347.74 1085.5 2332 1082L2331 1083C2333.19 1092.23 2338.85 1102.19 2344.76 1109.49C2348.85 1114.54 2356.24 1118.16 2354.35 1126C2352.87 1132.14 2347.53 1136.72 2344.55 1142.04C2342.5 1145.71 2342.53 1150.36 2339.57 1153.52C2337.17 1156.08 2333.24 1156.66 2331.12 1159.43C2327.18 1164.59 2327.99 1171.92 2322.69 1176.42C2314.37 1183.46 2303.3 1185.25 2298 1174L2297 1174L2298 1176L2297 1176L2293 1173C2298.98 1182.27 2301.89 1185.83 2300 1197L2305 1197L2325 1192L2334.79 1170.09L2344.87 1160.87L2359 1136C2364.86 1139.5 2368.27 1145.89 2374.29 1148.88C2383.6 1153.5 2400.4 1147.96 2402 1137C2408.16 1135.17 2407.6 1130.47 2408 1125L2409 1125C2411.71 1133.34 2417.7 1123.6 2423 1123L2424 1111L2419 1115L2410 1115C2409.09 1120.8 2404.71 1122.36 2400 1125L2400 1121C2404.25 1120.14 2407.07 1118.57 2407 1114C2410.59 1111.71 2411.49 1107.15 2415.02 1104.43C2418.17 1102 2422.57 1101.84 2425.2 1098.72C2429.6 1093.49 2430.68 1084.16 2439 1084L2447 1073C2457.57 1075.29 2468.23 1065.25 2472 1056C2475.29 1057.06 2489.5 1054.98 2490 1052L2494 1053L2495 1050L2498 1051C2506.43 1039.16 2515.2 1032.05 2513.91 1016C2513.28 1008.14 2503.86 996.215 2506.61 989C2509.91 980.319 2519.77 975.106 2525.33 968C2533.43 957.636 2537.08 943.83 2544.67 933.455C2551.92 923.553 2563.19 918.101 2570.96 908.871C2579.12 899.185 2585.64 868.652 2580.77 856.229C2578.24 849.766 2572.52 858.38 2568.85 854.624C2566.01 851.72 2565.4 846.546 2563.53 843C2559.91 836.106 2554.17 829.014 2547.96 824.29C2542.74 820.317 2535.71 817.012 2529 817.376C2525.21 817.581 2520.72 820.123 2517.01 819.013C2513.23 817.878 2510.85 813.813 2507.96 811.374C2500.44 805.03 2493.59 798.904 2484 796.108C2472.05 792.625 2457.36 799.277 2444.83 796.816C2435.95 795.071 2425.59 783.623 2418.17 778.468C2414.56 775.963 2408.22 774.317 2405 778z"/>
<path style="fill:#75b551; stroke:none;" d="M2391 782L2391 783L2407.58 784.166L2425 791L2420 786C2418.27 772.906 2398.41 778.255 2391 782z"/>
<path style="fill:#a19d94; stroke:none;" d="M2403 777L2404 778L2403 777z"/>
<path style="fill:#b4c630; stroke:none;" d="M2373 778C2373.24 780.998 2374.53 784.917 2372.96 787.695C2369.79 793.281 2361.28 792.895 2356 794.765C2348.68 797.36 2345.76 804.755 2346.04 812C2346.61 826.761 2354.36 837.462 2352.6 852.985C2351.61 861.707 2352.18 884.549 2357.74 891.482C2366.66 902.613 2389.17 895.557 2400 891.814C2403.77 890.511 2407.58 891.19 2410.91 888.566C2425 877.44 2424.37 856.256 2430.6 841C2434.74 830.873 2450.32 805.659 2432 800C2430.81 792.635 2422.53 792.066 2417 789.429C2413.85 787.926 2411.43 784.914 2408 784.027C2395.22 780.721 2384.85 785.318 2373 778z"/>
<path style="fill:#a19d94; stroke:none;" d="M1115 779L1114 783L1115 779z"/>
<path style="fill:#75b551; stroke:none;" d="M2425 788L2426 789L2425 788z"/>
<path style="fill:#a19d94; stroke:none;" d="M1110 795L1110 799L1111 799L1110 795M1196.33 803.667L1196.67 804.333L1196.33 803.667M1196 806C1194.98 808.899 1194.77 810.308 1198 811L1196 806M1105 818L1106 819L1105 818z"/>
<path style="fill:#b4c630; stroke:none;" d="M1814 831C1802.76 841.356 1793.13 843.345 1778.09 841.656C1772.27 841.003 1755.9 837.55 1752 842C1757.59 841.581 1759.07 845.88 1764.04 846.768C1774.43 848.622 1795.89 850.544 1805.82 846.258C1808.99 844.885 1810.87 841.591 1814 840L1814 836L1811 837L1816 834L1814 831z"/>
<path style="fill:#75b551; stroke:none;" d="M1745 849L1723.77 861.059L1719.91 885.826L1707 896L1709 898L1708 905C1715.27 915.207 1710.84 927.945 1709.54 939C1707.47 956.593 1707.41 971.952 1713.09 989C1717.38 1001.87 1728.29 1019.1 1723 1033L1728 1035L1730.85 1057.99L1732.91 1081L1744.67 1114L1748.86 1152L1744.51 1167.58L1753.04 1192L1754.29 1222L1761.09 1252L1771 1272.96L1765 1281C1767.94 1284.68 1769.79 1287.25 1766 1291L1767 1312C1770.64 1316.79 1769 1323.34 1769.15 1329C1769.35 1336.68 1771.18 1345.61 1773.29 1353C1777.96 1369.35 1783.94 1386.18 1786.84 1402.96C1788.03 1409.83 1786.89 1417.18 1788.61 1424C1792.48 1439.41 1799.6 1453.72 1803.54 1469C1804.89 1474.22 1804.14 1479.68 1805.41 1485C1807.63 1494.32 1805.59 1500.91 1805.14 1510C1804.66 1519.88 1807.86 1528.81 1796 1533C1797.67 1540.05 1795.99 1551.32 1793 1558L1795 1558L1795 1559L1793 1559L1794.99 1579L1795.19 1592.98L1807 1604L1832 1610L1836 1659L1840 1662L1841 1662C1846.22 1655.33 1852.28 1657.52 1860 1658C1862.99 1654.96 1867.16 1653.19 1868.91 1649.07C1874.64 1635.61 1861.57 1625.1 1867 1611L1872 1614C1885.79 1604.42 1877.31 1586.58 1879.6 1573C1881.2 1563.5 1887.05 1555.51 1885 1545L1888 1547L1889 1533L1892 1533L1893 1504C1897.19 1502.78 1898.51 1497.11 1898.65 1493C1898.82 1487.78 1896.56 1483.05 1896.21 1478C1895.68 1470.19 1897.61 1462.15 1897 1454C1895.82 1438.24 1896.24 1421.63 1893.58 1406C1891.87 1395.91 1886.5 1386.07 1884.99 1376.26C1882.88 1362.58 1884.47 1346.98 1883.96 1333C1883.59 1322.92 1881.59 1296.63 1892 1291L1893.99 1277L1894.3 1237L1900.09 1204L1893 1167L1892 1164L1890.12 1153L1878.38 1100L1876 1083L1879 1055C1870.77 1029.25 1872.5 1000.96 1864.5 974.94C1862.09 967.105 1856.09 960.267 1853.65 952.569C1851.09 944.484 1848.5 936.39 1847.46 928C1846.99 924.143 1847.13 920.207 1843 919C1842.51 914.462 1840.92 907.532 1837 905C1839.55 896.581 1835.68 890.161 1834.28 882C1831.59 866.344 1834.87 851.62 1824 838L1814.44 838.664L1802.99 846.772L1773 846.179L1745 849z"/>
<path style="fill:#a19d94; stroke:none;" d="M1811 840L1812 841L1811 840z"/>
<path style="fill:#b4c630; stroke:none;" d="M1748.67 841.333L1749.33 841.667L1748.67 841.333M1734 846L1734 847L1738 848L1745 848L1744 844L1748 843L1734 846M1727 850L1737 849L1727 850M1737 850L1738 851L1737 850z"/>
<path style="fill:#a19d94; stroke:none;" d="M1833 860L1834 861L1833 860M2291.67 860.333L2292.33 860.667L2291.67 860.333M2300 862.538C2282.58 865.663 2307.75 882.117 2316.14 879.566C2319.93 878.412 2319.28 872.904 2317.26 870.418C2314.19 866.659 2304.82 861.673 2300 862.538M1834 871L1835 872L1834 871M1707.33 892.667L1707.67 893.333L1707.33 892.667M1710 893L1711 894L1710 893M1706 896L1707 897L1706 896M1182 897L1183 898L1182 897M1708 898L1709 899L1708 898M1708 900L1709 901L1708 900M1708 902L1709 903L1708 902M1181.33 905.667L1181.67 906.333L1181.33 905.667M1707 905L1707 910L1710 910L1710 905L1707 905M1082 909L1083 910L1082 909M1710 912L1710 915L1711 915L1710 912M2326 945C2329.32 944.92 2331.95 944.441 2335 943.066C2337.65 941.871 2343.18 940.662 2344.35 937.698C2346.12 933.224 2339.35 923.842 2334.95 923.086C2329.94 922.224 2325.85 931.1 2325.42 935C2325.07 938.296 2325.65 941.728 2326 945M1710.33 934.667L1710.67 935.333L1710.33 934.667M1709 936L1710 937L1709 936M2359 936L2360 937L2359 936M1708 938L1708 940L1710 940L1710 938L1708 938M2520 941L2520 944L2521 944L2520 941M2191 962L2192 963L2191 962M1707.33 963.667L1707.67 964.333L1707.33 963.667M1707 966L1708 967L1707 966M1336 970L1336 972L1338 972L1336 970M1710 979L1711 980L1710 979M1711 982L1712 983L1711 982M1712 987L1713 988L1712 987M1714.33 992.667L1714.67 993.333L1714.33 992.667M2460 999L2460 1000L2464 1001L2464 998L2460 999M644.667 1014.33L645.333 1014.67L644.667 1014.33M2423 1031C2426.5 1029.04 2430.42 1028.36 2434 1026.52C2436.93 1025.02 2442.34 1022.84 2442.82 1019.05C2443.64 1012.64 2429.69 1013.88 2426.56 1016.03C2422.28 1018.95 2422.13 1026.52 2423 1031M1919 1015L1920 1016L1919 1015M2300 1025L2301 1025L2305 1017C2300.21 1018 2298.74 1020.26 2300 1025z"/>
<path style="fill:#b4c630; stroke:none;" d="M526 1026L527 1027L526 1026M520.333 1030.67L520.667 1031.33L520.333 1030.67M421 1053L421 1054L434 1064L461 1066C461 1063.44 468.504 1061.98 470.833 1059C474.445 1054.38 475.577 1047.39 479.333 1043.17C482.742 1039.33 486.014 1041.78 490 1042C498.217 1042.46 505.868 1039.36 514 1042L521 1035L521 1033C516.38 1031.77 512.596 1033.64 508 1034.41C499.494 1035.83 485.241 1033.12 478.225 1038.7C471.654 1043.93 470.914 1054.15 461.996 1057.48C447.034 1063.06 435.378 1054.17 421 1053z"/>
<path style="fill:#a19d94; stroke:none;" d="M2225.23 1034.74C2220.27 1037.02 2220.02 1049 2223.74 1052.4C2227.57 1055.89 2241.37 1054.54 2245.7 1052.27C2250.07 1049.98 2247.46 1044.86 2245.17 1042.09C2241.27 1037.39 2231.52 1031.86 2225.23 1034.74z"/>
<path style="fill:#75b551; stroke:none;" d="M514 1042L491 1041.86L480.338 1042.08L470.606 1058L461 1066L434 1064L424 1058C421.432 1062.45 416.926 1065.93 415.685 1071.01C412.54 1083.9 419.163 1097.82 424.468 1109C426.738 1113.78 426.786 1119.26 429.4 1124C438.107 1139.75 451.179 1151.71 457.995 1169C460.948 1176.49 457.924 1183.7 459.429 1191C463.874 1212.56 471.96 1232.71 477.35 1254C480.915 1268.08 485.511 1282.56 485.71 1297C485.761 1300.73 487.687 1305.79 486 1309L490 1313C489.915 1317.47 491.208 1321.48 495 1324L495 1336C502.211 1347.27 497.542 1362 500.7 1374C509.865 1408.81 509.31 1447.06 512.055 1482.96C513.268 1498.82 519.631 1514.73 519.946 1531C520.062 1536.97 518.585 1543 519.143 1549C519.648 1554.43 522.611 1559.44 522.541 1565C522.453 1572.04 520.101 1578.92 520.219 1586C520.317 1591.87 520.669 1601.56 526 1605C521.858 1622.39 531.408 1637.97 532 1655C536.818 1656.32 541.524 1654.39 545.985 1657.26C550.416 1660.12 552.723 1667.17 558.04 1668.32C566.969 1670.24 582.007 1659.24 587.335 1652.79C596.622 1641.56 595.148 1627.55 598.201 1614.58C599.992 1606.97 604.123 1601.19 603.982 1593C603.825 1583.84 599.708 1575.13 601.275 1565.96C604.688 1545.99 606.199 1526.24 608.972 1506.33C610.241 1497.23 613.919 1488.9 615.535 1480C618.518 1463.57 618.17 1446.47 619.213 1430C619.639 1423.27 622.378 1416.82 622.545 1410C623.041 1389.7 617.32 1370.01 615.464 1350C613.893 1333.05 615.057 1317.09 611.963 1300C610.057 1289.47 610.081 1278.11 606.251 1268C600.596 1253.08 590.707 1241.25 585.185 1226C582.084 1217.44 586.5 1203.06 578 1197C578.782 1184.07 570.602 1172.98 566.564 1161.83C564.815 1157 565.655 1151.06 564.239 1146C559.914 1130.53 554.625 1114.04 549.251 1098.72C545.783 1088.83 536.54 1081.28 537 1070L531 1056L532 1052L528 1040C521.747 1037.21 518.029 1034.49 514 1042z"/>
<path style="fill:#a19d94; stroke:none;" d="M1064 1040L1067 1037L1064 1040M286 1049C289.68 1037.08 279.407 1042.54 286 1049M1062 1049L1063 1050L1062 1049M1061 1050C1060.25 1052.95 1059.8 1054.31 1063 1055L1061 1050M532 1052L531 1056L534 1059L535 1059L532 1052M1878 1052L1879 1053L1878 1052M1877 1053L1878 1054L1877 1053M2219 1056L2222 1056L2221 1054L2219 1056M1879.33 1055.67L1879.67 1056.33L1879.33 1055.67M1730 1056L1731 1057L1730 1056M1731.33 1059.67L1731.67 1060.33L1731.33 1059.67M534 1060L535 1061L534 1060M1731 1062L1732 1063L1731 1062M2196 1065L2196 1067C2200.14 1068.17 2202.84 1067.92 2205 1064L2196 1065M1056 1064L1056 1067L1057 1067L1056 1064M536.333 1071.67L536.667 1072.33L536.333 1071.67M1732 1075L1732 1078L1733 1078L1732 1075M538 1078L539 1079L538 1078M540 1082L541 1083L540 1082M1129 1084L1130 1085L1129 1084M1879 1087L1880 1088L1879 1087M1128 1088L1128 1091L1129 1091L1128 1088M544 1091L545 1092L544 1091M1128 1093L1129 1094L1128 1093z"/>
<path style="fill:#b4c630; stroke:none;" d="M2206 1093L2206 1096L2210 1096L2206 1093z"/>
<path style="fill:#a19d94; stroke:none;" d="M417 1096L417 1098L419 1098L419 1096L417 1096z"/>
<path style="fill:#b4c630; stroke:none;" d="M2210 1096C2211.62 1098.94 2212.69 1099.5 2216 1099L2217 1104L2228 1101L2228 1100L2210 1096z"/>
<path style="fill:#75b551; stroke:none;" d="M2171 1156C2167.46 1157.87 2167.25 1162.67 2165.83 1166.14C2163.93 1170.82 2160.25 1174.38 2158.25 1179C2156.83 1182.28 2157.65 1185.78 2156.36 1189C2154.72 1193.07 2150.83 1195.88 2149.08 1200C2145 1209.65 2143.95 1220.35 2139.83 1230.14C2135.53 1240.36 2127.08 1249.08 2122.69 1259.08C2119.81 1265.67 2122.24 1273.87 2119.89 1279.94C2118.78 1282.81 2115.31 1281.71 2113.22 1283.33C2105.66 1289.21 2101.9 1297.96 2105 1306C2101.39 1305.98 2101.1 1310.1 2104 1312L2100 1312L2102 1316L2094.48 1314.24L2088.8 1326L2080 1352L2077 1351L2076 1356L2071 1357L2072 1360C2068.14 1362.93 2066.69 1370.33 2067 1375C2061.14 1378.8 2059.24 1391.45 2058.87 1398C2058.01 1413.22 2056.55 1431.42 2052.36 1446C2045.51 1469.89 2053.51 1493.09 2056.36 1517C2058.56 1535.44 2052.63 1556.36 2051.23 1574.71C2049.96 1591.46 2054.2 1608.13 2054 1625C2053.92 1631.4 2051.47 1637.07 2050.62 1643.29C2050.05 1647.56 2051.75 1651.74 2050.28 1656C2047.9 1662.9 2040.99 1672.85 2047.03 1680.4C2049.86 1683.94 2060.89 1682 2065 1682C2070.82 1682 2081.88 1684.1 2086.7 1680.26C2091.62 1676.34 2091.17 1667.53 2092.39 1662C2094.42 1652.78 2099.59 1644.1 2104 1636L2106 1637L2108 1635C2107.42 1630.93 2105.17 1627.05 2105.14 1622.99C2104.97 1602.28 2115.67 1584.57 2123.43 1566.62C2128.96 1553.85 2133.96 1539.16 2138.87 1526C2143.46 1513.68 2140.57 1498.25 2144.52 1486C2148.73 1472.96 2157.11 1460.4 2162.76 1448C2166.1 1440.67 2166.15 1432.2 2169.56 1425.04C2173.01 1417.79 2179.62 1412.01 2183.45 1404.91C2187.54 1397.32 2189.25 1388.72 2193.56 1381C2200.22 1369.08 2208.39 1356.8 2213.12 1344.04C2217.29 1332.75 2219.09 1316.99 2232 1313L2232 1296L2249 1280C2254.46 1255.53 2270.5 1235.08 2283 1214C2287.91 1214.19 2289.33 1210.32 2292.43 1207C2300.98 1197.83 2305.28 1187.32 2296.24 1176.73C2290.6 1170.13 2281.66 1166.06 2276.81 1158.96C2267.59 1145.44 2262.28 1123.86 2248.68 1113.99C2241.73 1108.95 2231.62 1108.85 2223.58 1106.79C2218.07 1105.38 2213.19 1102.05 2208 1099.82C2204.49 1098.3 2198.72 1097.32 2195.04 1098.95C2190.3 1101.04 2187.94 1109.49 2186.34 1114C2181.83 1126.76 2169.77 1142.08 2171 1156z"/>
<path style="fill:#b4c630; stroke:none;" d="M2229 1100L2229 1101L2240 1101L2229 1100z"/>
<path style="fill:#a19d94; stroke:none;" d="M420 1104L423 1107L420 1104z"/>
<path style="fill:#b4c630; stroke:none;" d="M2246 1104L2247 1105L2246 1104M2249 1105L2251 1108L2249 1105z"/>
<path style="fill:#a19d94; stroke:none;" d="M2432 1119L2424 1122L2432 1128L2432 1125C2437.91 1124.74 2444.57 1115.75 2439.97 1110.32C2434.25 1103.57 2431.35 1114.81 2432 1119z"/>
<path style="fill:#e1d9c5; stroke:none;" d="M2389 1137L2389 1131C2383.65 1126.29 2384.73 1117.09 2379.57 1112.86C2375.85 1109.81 2366.77 1109.43 2365.33 1115.11C2361.79 1129.09 2377.23 1138.45 2389 1137z"/>
<path style="fill:#b4c630; stroke:none;" d="M2255.33 1111.67L2255.67 1112.33L2255.33 1111.67z"/>
<path style="fill:#a19d94; stroke:none;" d="M2186.33 1112.67L2186.67 1113.33L2186.33 1112.67M2185 1114L2185 1117L2186 1117L2185 1114z"/>
<path style="fill:#b4c630; stroke:none;" d="M2259 1115L2260 1116L2259 1115M2258 1116C2258.68 1127.55 2260.53 1138.13 2272 1144L2270 1146C2272.98 1151.24 2277.53 1168.31 2286 1164L2287 1169L2298 1176L2297 1174L2298 1174L2304 1181L2289.41 1163.55L2278.99 1156.9L2273.69 1144.17L2263.19 1130L2258 1116z"/>
<path style="fill:#a19d94; stroke:none;" d="M2274 1117L2272 1123L2282 1125L2274 1117M2184 1119L2185 1120L2184 1119M2183.33 1120.67L2183.67 1121.33L2183.33 1120.67M2271 1120L2272 1121L2271 1120M2181 1122L2181 1127L2182 1127L2183 1122L2181 1122M429 1124L430 1128L431 1128L429 1124M2180 1127L2181 1128L2180 1127M2284 1127L2285 1128L2284 1127M1883 1129L1884 1130L1883 1129M2179 1129L2180 1130L2179 1129M2178 1130L2179 1131L2178 1130M1883 1131L1884 1132L1883 1131M2176 1133L2175 1137L2176 1137L2176 1133M2262 1134L2263 1135L2262 1134M2265 1139L2266 1140L2265 1139M2175 1140L2172 1148L2175 1140M2266 1140L2266 1142L2268 1142L2266 1140M2268 1142L2269 1143L2268 1142M2269 1143L2272 1145L2269 1143M446 1147L447 1148L446 1147M2170 1150L2171 1156L2170 1150M1038 1156L1039 1157L1038 1156M2168 1156L2168 1159L2170 1158L2170 1157L2168 1156M1746.33 1158.67L1746.67 1159.33L1746.33 1158.67M2167 1159L2168 1160L2167 1159M452 1160L453 1161L452 1160M453 1161L454 1162L453 1161M1744 1163L1744 1166L1745 1166L1744 1163M2166 1164L2167 1165L2166 1164M2285 1164L2288 1168L2285 1164M2287 1164L2288 1165L2287 1164M2165 1166L2164 1168L2166 1168L2165 1166M457 1168L459 1171L457 1168M2160 1174L2161 1175L2160 1174M2159.33 1175.67L2159.67 1176.33L2159.33 1175.67M2158.33 1177.67L2158.67 1178.33L2158.33 1177.67M1031 1179L1032 1180L1031 1179M1030 1180L1029 1184L1030 1180M2157 1180L2158 1181L2157 1180z"/>
<path style="fill:#b4c630; stroke:none;" d="M2304 1181L2305 1182L2304 1181M2305.67 1182.33L2306.33 1182.67L2305.67 1182.33z"/>
<path style="fill:#a19d94; stroke:none;" d="M1028 1188L1028 1191L1029 1191L1028 1188M2154 1192L2155 1193L2154 1192M1753 1194L1754 1195L1753 1194M2152 1194L2153 1195L2152 1194M1026 1197L1025 1199L1027 1199L1026 1197M2299 1198L2300 1199L2299 1198M462 1200L462 1204L463 1204L462 1200M1447 1202L1451 1205L1447 1202M1753 1204L1754 1205L1753 1204M2147 1205L2148 1206L2147 1205M2147 1207L2148 1208L2147 1207M2146 1208L2147 1209L2146 1208M2289 1209L2289 1211L2291 1209L2289 1209M2146 1210L2147 1211L2146 1210M2288.33 1211.67L2288.67 1212.33L2288.33 1211.67M2145 1212L2143 1222L2144 1222L2145 1212M464 1213L465 1214L464 1213M1753 1216L1753 1220L1754 1220L1753 1216M1022.33 1218.67L1022.67 1219.33L1022.33 1218.67M2142 1224L2143 1225L2142 1224M2274 1225L2275 1226L2274 1225M2142 1226L2143 1227L2142 1226M2140 1228L2141 1229L2140 1228M472 1232L472 1236L473 1236L472 1232M474 1238L475 1246L476 1246L474 1238M2128 1241L2128 1247L2132 1241L2128 1241M476 1249L477 1250L476 1249M2127 1251L2121 1254L2122 1260L2123 1260L2127 1251z"/>
<path style="fill:#75b551; stroke:none;" d="M601 1256L602 1257L601 1256z"/>
<path style="fill:#a19d94; stroke:none;" d="M2121.33 1261.67L2121.67 1262.33L2121.33 1261.67M2377 1263L2374 1264C2374.88 1268.1 2378.5 1266.13 2377 1263M479 1264L480 1265L479 1264M480 1270L481 1271L480 1270M1764 1278L1765 1281L1766 1281L1767 1278L1764 1278z"/>
<path style="fill:#b4c630; stroke:none;" d="M592 1285L593 1286L592 1285z"/>
<path style="fill:#a19d94; stroke:none;" d="M2110 1285L2110 1287L2112 1285L2110 1285M2105 1292L2106 1293L2105 1292M2104 1293L2103 1296C2105.16 1295.02 2105.5 1294.81 2104 1293z"/>
<path style="fill:#b4c630; stroke:none;" d="M1030.67 1306.33L1031.33 1306.67L1030.67 1306.33z"/>
<path style="fill:#11110b; stroke:none;" d="M2105 1308L2106 1309L2105 1308z"/>
<path style="fill:#a19d94; stroke:none;" d="M486 1311L487 1312L486 1311M488.667 1313.33L489.333 1313.67L488.667 1313.33z"/>
<path style="fill:#b4c630; stroke:none;" d="M1022 1327C1023.78 1326.68 1025.38 1326.42 1027.01 1325.54C1037.91 1319.65 1024.71 1310.83 1022.33 1320.04C1021.76 1322.23 1022.16 1324.75 1022 1327z"/>
<path style="fill:#a19d94; stroke:none;" d="M2092 1315L2090 1322L2091 1322L2092 1315z"/>
<path style="fill:#75b551; stroke:none;" d="M2226 1316L2228 1318L2228 1316L2226 1316z"/>
<path style="fill:#a19d94; stroke:none;" d="M2088 1327L2089 1328L2088 1327M1073 1328L1074 1329L1073 1328z"/>
<path style="fill:#b4c630; stroke:none;" d="M1024.33 1331.67L1024.67 1332.33L1024.33 1331.67z"/>
<path style="fill:#a19d94; stroke:none;" d="M2086 1332L2085 1336L2086 1336L2086 1332M495.333 1333.67L495.667 1334.33L495.333 1333.67M496.333 1340.67L496.667 1341.33L496.333 1340.67M615.333 1345.67L615.667 1346.33L615.333 1345.67M2079 1346C2077.61 1348.91 2077.22 1350.14 2080 1352L2079 1346M499 1353L499 1358L500 1358L499 1353M2070 1356L2066 1372L2067 1372L2072 1360L2072 1356L2070 1356M417.667 1365.33L418.333 1365.67L417.667 1365.33M1002 1367L1003 1368L1002 1367M1002 1369L1003 1370L1002 1369M2066.33 1373.67L2066.67 1374.33L2066.33 1373.67M1001.67 1374.33L1002.33 1374.67L1001.67 1374.33M1778.33 1376.67L1778.67 1377.33L1778.33 1376.67M2063 1378L2063 1382L2064 1382L2063 1378M2062 1382L2063 1383L2062 1382M1172.67 1388.33L1173.33 1388.67L1172.67 1388.33M2059 1388L2060 1389L2059 1388z"/>
<path style="fill:#b4c630; stroke:none;" d="M1028 1391L1029 1398L1030 1398L1028 1391z"/>
<path style="fill:#a19d94; stroke:none;" d="M1783 1393L1784 1398L1785 1398L1783 1393M2058 1396L2058 1401L2059 1401L2058 1396M1785 1398L1785 1401L1786 1401L1785 1398M2058 1402L2058 1406L2059 1406L2058 1402M2184 1403L2185 1404L2184 1403M994.333 1406.67L994.667 1407.33L994.333 1406.67M1787 1406L1788 1407L1787 1406M2057 1408L2057 1411L2058 1411L2057 1408M622 1411L622 1418L623 1418L624 1411L622 1411M1069 1411L1071 1414L1069 1411M2057 1413L2058 1414L2057 1413M2503 1413L2504 1414L2503 1413M1069 1415L1070 1416L1069 1415M2621 1420L2620 1424L2623 1420L2621 1420M2054 1424L2055 1425L2054 1424M1066 1425L1067 1426L1066 1425M1895 1427L1897 1430L1895 1427M2053 1438L2054 1439L2053 1438M2052 1439L2050 1451L2051 1451L2052 1439M993 1446L993 1449L994 1449L993 1446M510 1452L510 1455L511 1455L510 1452M2049 1452L2050 1453L2049 1452M511 1456L512 1457L511 1456M2157 1456L2156 1458L2158 1458L2157 1456M2047 1459L2048 1460L2047 1459M2155 1463L2156 1464L2155 1463M2047 1468L2048 1469L2047 1468M2052 1485L2053 1486L2052 1485M512 1487L513 1488L512 1487M514.333 1489.67L514.667 1490.33L514.333 1489.67M1898 1489L1899 1490L1898 1489M1898.33 1491.67L1898.67 1492.33L1898.33 1491.67M1507.67 1495.33L1508.33 1495.67L1507.67 1495.33M514 1502L517 1511L516 1502L514 1502M1061 1502L1061 1504L1063 1504L1063 1502L1061 1502M2142 1505L2143 1506L2142 1505M1063 1507L1064 1518L1065 1518L1063 1507M516 1512L517 1513L516 1512z"/>
<path style="fill:#b4c630; stroke:none;" d="M1043 1520L1046 1520L1045 1518L1043 1520z"/>
<path style="fill:#a19d94; stroke:none;" d="M1063 1520L1063 1523L1064 1523L1063 1520M1062 1524L1063 1525L1062 1524M2383 1529L2384 1530L2383 1529M1795 1534L1795 1545L1797 1534L1795 1534M994 1541L995 1542L994 1541M994 1543L995 1544L994 1543M995 1544L996 1545L995 1544M1794.33 1555.67L1794.67 1556.33L1794.33 1555.67M1793.67 1558.33L1794.33 1558.67L1793.67 1558.33M1059.33 1560.67L1059.67 1561.33L1059.33 1560.67M1883 1564L1884 1565L1883 1564M1060 1565L1060 1574C1063.76 1571.54 1062.66 1568.07 1060 1565M1794 1569L1795 1570L1794 1569M1794 1581L1795 1588L1794 1581M519.333 1587.67L519.667 1588.33L519.333 1587.67M2051.33 1592.67L2051.67 1593.33L2051.33 1592.67M2109 1600L2109 1606L2110 1606L2109 1600M1003 1601L1004 1602L1003 1601M1803 1601L1804 1602L1803 1601M1806 1602L1807 1603L1806 1602M1003 1603L1004 1604L1003 1603M1879 1603L1872 1617L1879 1612L1879 1603M524 1617L525 1618L524 1617M524 1621L525 1622L524 1621M597 1624L597 1627L598 1627L597 1624M526 1628L527 1636L528 1636L526 1628M1867 1631L1869 1633L1869 1631L1867 1631M1869 1635L1870 1636L1869 1635M2106 1635L2106 1637L2108 1635L2106 1635M1870 1637L1871 1638L1870 1637M2051 1639L2051 1642L2052 1642L2051 1639M528.333 1640.67L528.667 1641.33L528.333 1640.67M529 1642L532 1655L529 1642M1870 1642L1870 1645L1871 1645L1870 1642M1056 1644L1058 1646L1058 1644L1056 1644M591 1645L592 1646L591 1645M1058.67 1646.33L1059.33 1646.67L1058.67 1646.33M1869 1646L1870 1647L1869 1646M589 1648L590 1649L589 1648M1058 1648L1058 1654L1060 1648L1058 1648M1869 1648L1870 1649L1869 1648M998 1649L999 1650L998 1649M588 1650L589 1651L588 1650M587 1653L588 1654L587 1653z"/>
<path style="fill:#b4c630; stroke:none;" d="M1040 1654C1038.62 1657.51 1036.8 1661.1 1042 1661L1040 1654z"/>
<path style="fill:#a19d94; stroke:none;" d="M1834 1654L1832 1669C1836.06 1668.86 1838.17 1668.42 1838 1664L1841 1660L1836 1659L1834 1654M532 1655L532 1658L533 1658L532 1655M1056 1656L1057 1657L1056 1656M549 1659L551 1662L549 1659M2044 1669L2045 1669L2047 1661C2043.15 1662.99 2042.82 1664.94 2044 1669z"/>
<path style="fill:#b4c630; stroke:none;" d="M1040 1663L1041 1664L1040 1663z"/>
<path style="fill:#a19d94; stroke:none;" d="M2165 1663L2164 1665L2166 1665L2165 1663z"/>
<path style="fill:#75b551; stroke:none;" d="M1838 1664L1838 1666L1840 1666L1838 1664z"/>
<path style="fill:#a19d94; stroke:none;" d="M1052 1665L1053 1666L1052 1665M1050.33 1672.67L1050.67 1673.33L1050.33 1672.67M1007 1674L1008 1675L1007 1674M1009 1678L1010 1679L1009 1678M1010 1679L1013 1682L1010 1679M2046 1681L2047 1682L2046 1681z"/>
</svg>
