<?xml version="1.0" standalone="yes"?>
<svg xmlns="http://www.w3.org/2000/svg" width="1644" height="600" viewBox="0 0 1644 600">
<path style="fill:#eb6177; stroke:none;" d="M0 0L0 72L180 72L180 84L288 84L288 96L348 96L348 108L396 108L396 120L432 120L432 132L480 132L480 144L504 144L504 156L540 156L540 168L588 168L588 180L612 180L612 192L636 192L636 204L660 204L660 216L684 216L684 228L696 228L696 240L720 240L720 252L744 252L744 264L756 264L756 276L780 276L780 288L804 288L804 300L828 300L828 312L852 312L852 324L876 324L876 336L912 336L912 348L936 348L936 360L972 360L972 372L1008 372L1008 384L1116 384L1116 372L1104 372L1104 360L1068 360L1068 348L1044 348L1044 336L1020 336L1020 324L1008 324L1008 312L996 312L996 300L972 300L972 288L960 288L960 276L936 276L936 264L924 264L924 252L900 252L900 240L888 240L888 228L876 228L876 216L852 216L852 204L840 204L840 180L816 180L816 168L804 168L804 156L780 156L780 144L768 144L768 132L756 132L756 120L744 120L744 108L732 108L732 96L708 96L708 84L696 84L696 72L672 72L672 60L660 60L660 48L636 48L636 36L624 36L624 24L600 24L600 12L576 12L576 0L0 0z"/>
<path style="fill:#fe9e9f; stroke:none;" d="M576 0L576 12L600 12L600 24L612 24L612 12L600 12L600 0L576 0z"/>
<path style="fill:#febfb5; stroke:none;" d="M600 0L600 12L612 12L612 24L636 24L636 36L648 36L648 48L672 48L672 60L684 60L684 72L708 72L708 84L720 84L720 96L732 96L732 108L756 108L756 120L768 120L768 144L780 144L780 156L804 156L804 168L816 168L816 180L840 180L840 204L852 204L852 216L876 216L876 228L888 228L888 240L900 240L900 252L924 252L924 264L936 264L936 276L960 276L960 288L972 288L972 300L996 300L996 312L1008 312L1008 324L1020 324L1020 336L1044 336L1044 348L1068 348L1068 360L1092 360L1092 348L1080 348L1080 324L1068 324L1068 312L1056 312L1056 300L1044 300L1044 288L1032 288L1032 276L1020 276L1020 252L1008 252L1008 240L996 240L996 228L984 228L984 216L972 216L972 204L960 204L960 180L948 180L948 168L924 168L924 144L912 144L912 132L888 132L888 120L876 120L876 108L864 108L864 84L840 84L840 72L816 72L816 60L804 60L804 48L780 48L780 36L768 36L768 24L744 24L744 12L720 12L720 0L600 0z"/>
<path style="fill:#fe9e9f; stroke:none;" d="M720 0L720 12L744 12L744 24L768 24L768 36L780 36L780 48L804 48L804 60L816 60L816 72L840 72L840 84L864 84L864 108L876 108L876 120L888 120L888 132L912 132L912 144L936 144L936 156L924 156L924 168L936 168L936 156L960 156L960 168L984 168L984 180L996 180L996 192L1020 192L1020 204L1032 204L1032 216L1056 216L1056 228L1080 228L1080 240L1116 240L1116 252L1152 252L1152 264L1188 264L1188 276L1248 276L1248 288L1308 288L1308 300L1428 300L1428 288L1488 288L1488 276L1524 276L1524 264L1548 264L1548 252L1560 252L1560 240L1584 240L1584 228L1596 228L1596 216L1608 216L1608 204L1619.7 202.972L1627 194L1643.73 167L1644 144L1632 142L1628 143L1628 144L1632 144L1632 156L1620 156L1620 147L1601 154C1604.51 158.022 1614.91 156 1620 156L1620 168L1596 168L1596 158L1582 159.652L1548 168L1548 180L1521 179L1521 180L1524 180L1524 192L1512 192L1512 185L1464 186L1464 192L1296 192L1296 180L1236 180L1236 168L1164 168L1164 156L1128 156L1128 144L1104 144L1104 132L1068 132L1068 120L1044 120L1044 108L1020 108L1020 96L984 96L984 84L960 84L960 72L936 72L936 60L924 60L924 48L900 48L900 36L864 36L864 24L840 24L840 12L792 12L792 0L720 0z"/>
<path style="fill:#ff8793; stroke:none;" d="M792 0L792 12L840 12L840 24L864 24L864 36L900 36L900 48L924 48L924 60L936 60L936 72L960 72L960 84L984 84L984 96L1020 96L1020 108L1044 108L1044 120L1068 120L1068 132L1104 132L1104 144L1128 144L1128 156L1164 156L1164 168L1236 168L1236 180L1296 180L1296 192L1464 192L1464 186L1512 185L1512 192L1524 192C1524 188.005 1525.73 181.013 1521 180L1521 179L1548 180L1548 168L1582 160.005L1596 158L1596 168L1620 168L1620 156L1601 154L1620 147L1620 156L1632 156L1632 144L1628 144L1628 143L1632 142L1644 144L1644 72L1631 71L1632 84L1596 84L1596 96L1560 96L1560 108L1284 108L1284 96L1236 96L1236 84L1200 84L1200 72L1152 72L1152 60L1092 60L1092 48L1044 48L1044 36L1008 36L1008 24L960 24L960 12L924 12L924 0L792 0z"/>
<path style="fill:#eb6177; stroke:none;" d="M924 0L924 12L960 12L960 24L1008 24L1008 36L1044 36L1044 48L1092 48L1092 60L1152 60L1152 72L1200 72L1200 84L1248 84L1248 96L1284 96L1284 108L1496 108L1541 108L1558.4 106.821L1560 96L1596 96L1596 84L1632 84L1632 72L1620 72L1632 66L1632 72L1644 72L1644 0L924 0z"/>
<path style="fill:#fe9e9f; stroke:none;" d="M624 24L624 36L636 36L636 24L624 24M636 36L636 48L648 48L648 36L636 36M660 48L660 60L672 60L672 48L660 48M672 60L672 72L684 72L684 60L672 60z"/>
<path style="fill:#f97486; stroke:none;" d="M1620 72C1625.82 72 1631.44 73.1486 1632 66L1620 72z"/>
<path style="fill:#ff8793; stroke:none;" d="M0 72L0 216L12 216L12 204L72 204L72 192L300 192L300 204L348 204L348 216L384 216L384 228L432 228L432 240L480 240L480 252L528 252L528 264L564 264C564 279.841 574.96 276 588 276L588 288L612 288L612 300L636 300L636 312L672 312L672 324L708 324L708 336L732 336L732 348L768 348L768 360L804 360C804 375.841 814.96 372 828 372L828 384L852 384L852 396L876 396L876 408L912 408L912 420L1068 420L1068 408L1092 408L1092 396L1116 396L1116 408L1128 408L1128 480L1116 480L1116 492L1104 492L1104 504L1092 504L1092 516L1080 516L1080 528L1068 528L1068 552L1056 552L1056 564L1032 564L1032 576L1020 576L1020 588L840 588L840 600L1104 600L1104 564L1116 564L1116 540L1128 540L1128 516L1140 516L1140 480L1152 480L1152 432L1140 432L1140 408L1128 408L1128 384L1008 384L1008 372L972 372L972 360L936 360L936 348L912 348L912 336L876 336L876 324L852 324L852 312L828 312L828 300L804 300L804 288L780 288L780 276L756 276L756 264L744 264L744 252L720 252L720 240L696 240L696 228L684 228L684 216L660 216L660 204L636 204L636 192L612 192L612 180L588 180L588 168L540 168L540 156L504 156L504 144L480 144L480 132L432 132L432 120L396 120L396 108L348 108L348 96L288 96L288 84L180 84L180 72L0 72z"/>
<path style="fill:#fe9e9f; stroke:none;" d="M696 72L696 84L708 84L708 72L696 72M708 84L708 96L720 96L720 84L708 84z"/>
<path style="fill:#f97486; stroke:none;" d="M1236 84L1236 96L1248 96L1248 84L1236 84M1546.67 95.3333L1547.33 95.6667L1546.67 95.3333M1558.67 107.333L1559.33 107.667L1558.67 107.333z"/>
<path style="fill:#fe9e9f; stroke:none;" d="M744 108L744 120L756 120L756 108L744 108M756 120L756 132L768 132L768 120L756 120z"/>
<path style="fill:#ff8793; stroke:none;" d="M924 144L924 156L936 156L936 144L924 144z"/>
<path style="fill:#fe9e9f; stroke:none;" d="M1616 144L1617 145L1616 144M1608 150L1609 151L1608 150z"/>
<path style="fill:#ff8793; stroke:none;" d="M936 156L936 168L948 168L948 180L960 180L960 192L972 192L972 204L984 204L984 216L996 216L996 228L1008 228L1008 240L1020 240L1020 252L1032 252L1032 264L1044 264L1044 276L1056 276L1056 288L1068 288L1068 300L1080 300L1080 312L1092 312L1092 324L1104 324L1104 336L1116 336L1116 348L1128 348L1128 372L1152 372L1152 396L1176 396L1176 408L1188 408L1188 420L1200 420L1200 432L1212 432L1212 444L1224 444L1224 456L1248 456L1248 468L1260 468L1260 480L1272 480L1272 492L1296 492L1296 516L1344 516L1344 528L1368 528L1368 540L1392 540L1392 552L1416 552L1416 564L1428 564L1428 576L1464 576L1464 588L1500 588L1500 600L1644 600L1644 504L1560 504L1560 492L1476 492L1476 480L1416 480L1416 468L1380 468L1380 456L1344 456L1344 444L1320 444L1320 432L1296 432L1296 420L1272 420L1272 408L1236 408L1236 396L1212 396L1212 384L1188 384L1188 372L1176 372L1176 360L1164 360L1164 348L1152 348L1152 336L1128 336L1128 312L1104 312L1104 288L1080 288L1080 276L1068 276L1068 264L1056 264L1056 252L1044 252L1044 240L1032 240L1032 228L1020 228L1020 216L996 216L996 204L984 204L984 192L972 192L972 180L960 180L960 168L948 168L948 156L936 156z"/>
<path style="fill:#eb6177; stroke:none;" d="M948 156L948 168L960 168L960 156L948 156M960 168L960 180L972 180L972 192L984 192L984 204L996 204L996 216L1020 216L1020 228L1032 228L1032 240L1044 240L1044 252L1056 252L1056 264L1068 264L1068 276L1080 276L1080 288L1104 288L1104 312L1128 312L1128 336L1152 336L1152 348L1164 348L1164 360L1176 360L1176 372L1188 372L1188 384L1212 384L1212 396L1236 396L1236 408L1272 408L1272 420L1296 420L1296 432L1320 432L1320 444L1344 444L1344 456L1380 456L1380 468L1416 468L1416 480L1476 480L1476 492L1560 492L1560 504L1644 504L1644 348L1632 348L1632 360L1548 360L1548 372L1332 372L1332 360L1308 360L1308 348L1248 348L1248 336L1224 336L1224 324L1212 324L1212 312L1200 312L1200 300L1164 300L1164 288L1140 288L1140 276L1128 276L1128 264L1116 264L1116 252L1092 252L1092 240L1080 240L1080 228L1056 228L1056 216L1032 216L1032 204L1020 204L1020 192L996 192L996 180L984 180L984 168L960 168z"/>
<path style="fill:#febfb5; stroke:none;" d="M1643 169C1634.32 182.835 1625.79 204 1608 204L1608 216L1596 216L1596 228L1584 228L1584 240L1560 240L1560 252L1548 252L1548 264L1524 264L1524 276L1488 276L1488 288L1428 288L1428 300L1308 300L1308 288L1248 288L1248 276L1188 276L1188 264L1152 264L1152 252L1116 252L1116 264L1140 264L1140 276L1164 276L1164 288L1188 288L1188 300L1200 300L1200 312L1224 312L1224 324L1248 324L1248 336L1272 336L1272 348L1308 348L1308 360L1392 360L1392 372L1548 372L1548 360L1632 360L1632 348L1644 348L1644 222L1644 186L1643 169z"/>
<path style="fill:#fe9e9f; stroke:none;" d="M1543 175L1544 176L1543 175M1522 176L1523 177L1522 176M72 192L72 204L12 204L12 216L0 216L0 372L24 372L24 360L48 360L48 348L84 348L84 336L108 336L108 324L180 324L180 312L408 312L408 324L468 324L468 336L516 336L516 348L540 348L540 360L588 360L588 372L624 372L624 384L672 384L672 396L696 396L696 408L732 408L732 420L768 420L768 432L804 432L804 444L840 444L840 456L1044 456L1044 444L1080 444L1080 432L1092 432L1092 420L1116 420L1116 396L1092 396L1092 408L1068 408L1068 420L912 420L912 408L876 408L876 396L852 396L852 384L828 384L828 372C815.512 372 804.002 375.547 804 360L768 360L768 348L732 348L732 336L708 336L708 324L672 324L672 312L636 312L636 300L612 300L612 288L588 288L588 276C575.512 276 564.002 279.547 564 264L528 264L528 252L480 252L480 240L432 240L432 228L384 228L384 216L348 216L348 204L300 204L300 192L72 192M960 192L960 204L972 204L972 192L960 192M972 204L972 216L984 216L984 204L972 204M984 216L984 228L996 228L996 216L984 216M996 228L996 240L1008 240L1008 228L996 228M1008 240L1008 252L1020 252L1020 240L1008 240z"/>
<path style="fill:#febfb5; stroke:none;" d="M1092 240L1092 252L1116 252L1116 240L1092 240z"/>
<path style="fill:#fe9e9f; stroke:none;" d="M513 249L514 250L513 249M1020 252L1020 276L1032 276L1032 288L1044 288L1044 300L1056 300L1056 312L1068 312L1068 324L1080 324L1080 348L1092 348L1092 360L1104 360L1104 372L1116 372L1116 384L1128 384L1128 408L1140 408L1140 432L1152 432L1152 444L1164 444L1164 456L1176 456L1176 468L1188 468L1188 480L1200 480L1200 492L1212 492L1212 516L1236 516L1236 528L1248 528L1248 540L1260 540L1260 552L1272 552L1272 564L1296 564L1296 576L1308 576L1308 588L1320 588L1320 600L1500 600L1500 588L1464 588L1464 576L1428 576L1428 564L1416 564L1416 552L1392 552L1392 540L1368 540L1368 528L1344 528L1344 516L1296 516L1296 492L1272 492L1272 480L1260 480L1260 468L1248 468L1248 456L1224 456L1224 444L1212 444L1212 432L1200 432L1200 420L1188 420L1188 408L1176 408L1176 396L1152 396L1152 372L1128 372L1128 348L1116 348L1116 336L1104 336L1104 324L1092 324L1092 312L1080 312L1080 300L1068 300L1068 288L1056 288L1056 276L1044 276L1044 264L1032 264L1032 252L1020 252M1128 264L1128 276L1140 276L1140 264L1128 264z"/>
<path style="fill:#ff8793; stroke:none;" d="M1140 276L1140 288L1152 288L1152 276L1140 276z"/>
<path style="fill:#fe9e9f; stroke:none;" d="M1152 276L1152 288L1164 288L1164 276L1152 276z"/>
<path style="fill:#ff8793; stroke:none;" d="M1164 288L1164 300L1176 300L1176 288L1164 288z"/>
<path style="fill:#fe9e9f; stroke:none;" d="M1176 288L1176 300L1188 300L1188 288L1176 288z"/>
<path style="fill:#febfb5; stroke:none;" d="M180 312L180 324L108 324L108 336L84 336L84 348L48 348L48 360L24 360L24 372L0 372L0 480L24 480L24 468L36 468L36 456L60 456L60 444L84 444L84 432L120 432L120 420L144 420L144 408L168 408L168 396L432 396L432 408L468 408L468 420L528 420L528 432L552 432L552 444L600 444L600 456L636 456L636 468L672 468L672 480L696 480L696 492L756 492L756 504L780 504L780 516L816 516L816 528L864 528L864 540L972 540L972 528L1020 528L1020 516L1044 516L1044 504L1056 504L1056 492L1068 492L1068 480L1092 480L1092 456L1116 456L1116 432L1128 432L1128 408L1116 408L1116 420L1092 420L1092 432L1080 432L1080 444L1044 444L1044 456L840 456L840 444L804 444L804 432L768 432L768 420L732 420L732 408L696 408L696 396L672 396L672 384L624 384L624 372L588 372L588 360L540 360L540 348L516 348L516 336L468 336L468 324L408 324L408 312L180 312z"/>
<path style="fill:#fe9e9f; stroke:none;" d="M1212 312L1212 324L1224 324L1224 312L1212 312z"/>
<path style="fill:#ff8793; stroke:none;" d="M1224 324L1224 336L1236 336L1236 324L1224 324z"/>
<path style="fill:#fe9e9f; stroke:none;" d="M1236 324L1236 336L1248 336L1248 324L1236 324z"/>
<path style="fill:#ff8793; stroke:none;" d="M1248 336L1248 348L1272 348L1272 336L1248 336M1332 360L1332 372L1368 372L1368 360L1332 360z"/>
<path style="fill:#fe9e9f; stroke:none;" d="M1368 360L1368 372L1392 372L1392 360L1368 360z"/>
<path style="fill:#ff8793; stroke:none;" d="M168 396L168 408L180 408L180 396L168 396z"/>
<path style="fill:#eb6177; stroke:none;" d="M180 396L180 408L144 408L144 420L120 420L120 432L84 432L84 444L60 444L60 456L36 456L36 468L24 468L24 480L12 480L12 492L0 492L0 552L24 552L24 540L72 540L72 528L108 528L108 516L132 516L132 504L180 504L180 492L228 492L228 480L276 480L276 468L444 468L444 480L492 480L492 492L516 492L516 504L564 504L564 516L624 516L624 528L660 528L660 540L696 540L696 552L720 552L720 564L756 564L756 576L792 576L792 588L1020 588L1020 576L1032 576L1032 564L1056 564L1056 552L1068 552L1068 528L1080 528L1080 516L1092 516L1092 504L1104 504L1104 492L1116 492L1116 480L1128 480L1128 432L1116 432L1116 456L1092 456L1092 480L1068 480L1068 492L1056 492L1056 504L1044 504L1044 516L1020 516L1020 528L972 528L972 540L852 540L852 528L816 528L816 516L780 516L780 504L732 504L732 492L696 492L696 480L660 480L660 468L636 468L636 456L600 456L600 444L552 444L552 432L516 432L516 420L468 420L468 408L432 408L432 396L180 396z"/>
<path style="fill:#fe9e9f; stroke:none;" d="M516 420L516 432L528 432L528 420L516 420z"/>
<path style="fill:#febfb5; stroke:none;" d="M1152 444L1152 480L1164 480L1164 576L1152 576L1152 600L1320 600L1320 588L1308 588L1308 576L1296 576L1296 564L1272 564L1272 552L1260 552L1260 540L1248 540L1248 528L1236 528L1236 516L1212 516L1212 492L1200 492L1200 480L1188 480L1188 468L1176 468L1176 456L1164 456L1164 444L1152 444z"/>
<path style="fill:#ff8793; stroke:none;" d="M276 468L276 480L228 480L228 492L180 492L180 504L132 504L132 516L108 516L108 528L72 528L72 540L48 540L48 552L24 552L24 576L12 576L12 588L0 588L0 600L108 600L108 588L120 588L120 576L168 576L168 564L252 564L252 552L456 552L456 564L600 564L600 576L660 576L660 588L792 588L792 576L756 576L756 564L720 564L720 552L696 552L696 540L660 540L660 528L624 528L624 516L564 516L564 504L516 504L516 492L492 492L492 480L444 480L444 468L276 468z"/>
<path style="fill:#f97486; stroke:none;" d="M660 468L660 480L672 480L672 468L660 468z"/>
<path style="fill:#fe9e9f; stroke:none;" d="M0 480L0 492L12 492L12 480L0 480M1140 480L1140 516L1128 516L1128 540L1116 540L1116 564L1104 564L1104 600L1152 600L1152 576L1164 576L1164 480L1140 480z"/>
<path style="fill:#ff8793; stroke:none;" d="M732 492L732 504L744 504L744 492L732 492z"/>
<path style="fill:#fe9e9f; stroke:none;" d="M744 492L744 504L756 504L756 492L744 492z"/>
<path style="fill:#f97486; stroke:none;" d="M852 528L852 540L864 540L864 528L852 528M24 540L24 552L48 552L48 540L24 540M0 552L0 576L24 576L24 552L0 552z"/>
<path style="fill:#fe9e9f; stroke:none;" d="M252 552L252 564L168 564L168 576L120 576L120 588L108 588L108 600L840 600L840 588L660 588L660 576L600 576L600 564L456 564L456 552L252 552z"/>
<path style="fill:#eb6177; stroke:none;" d="M0 576L0 588L12 588L12 576L0 576z"/>
</svg>
