<?xml version="1.0" standalone="yes"?>
<svg xmlns="http://www.w3.org/2000/svg" width="600" height="412" viewBox="0 0 600 412">
<!-- <path style="fill:#020202; stroke:none;" d="M0 0L0 412L600 412L600 0L0 0z"/> -->
<path style="fill:#42beb5; stroke:none;" d="M211.667 13.3333L212.333 13.6667L211.667 13.3333z"/>
<path style="fill:#eeb42c; stroke:none;" d="M213 13L213 14L218 14L213 13z"/>
<path style="fill:#fefcfc; stroke:none;" d="M218 13.4244C173.33 19.2895 132.835 21.5623 95 49.8951C2.43782 119.21 -19.6192 270.347 72 350.714C115.371 388.758 172.391 403.343 229 395.718C240.689 394.143 252.827 391.738 264 387.921C270.402 385.734 278.185 380.703 285 380.654C297.829 380.564 313.443 389.966 326 393.105C350.673 399.273 376.768 400.773 402 397.715C478.561 388.435 553.896 337.237 578.255 262C592.889 216.799 588.606 165.397 569.999 122C560.793 100.527 546.624 82.2302 530 66.0146C489.67 26.6759 426.138 9.7587 371 16.2855C356.769 17.9701 342.844 20.4062 329 24.1512C321.942 26.0605 313.273 30.8171 306 30.7909C297.736 30.7611 287.982 23.6494 280 21.2053C261.115 15.4225 237.761 10.8298 218 13.4244z"/>
<path style="fill:#eeb42c; stroke:none;" d="M233 13L233 14L237 14L233 13z"/>
<path style="fill:#42beb5; stroke:none;" d="M237.667 13.3333L238.333 13.6667L237.667 13.3333z"/>
<path style="fill:#ea554a; stroke:none;" d="M239 13L240 14L239 13M199 14L200 15L199 14z"/>
<path style="fill:#42beb5; stroke:none;" d="M200.667 14.3333L201.333 14.6667L200.667 14.3333z"/>
<path style="fill:#eeb42c; stroke:none;" d="M202.667 14.3333L203.333 14.6667L202.667 14.3333M246.667 14.3333L247.333 14.6667L246.667 14.3333z"/>
<path style="fill:#42beb5; stroke:none;" d="M248 14L249 15L248 14z"/>
<path style="fill:#ea554a; stroke:none;" d="M249 14L250 15L249 14M185 15L186 16L185 15z"/>
<path style="fill:#42beb5; stroke:none;" d="M186.667 15.3333L187.333 15.6667L186.667 15.3333z"/>
<path style="fill:#eeb42c; stroke:none;" d="M188.667 15.3333L189.333 15.6667L188.667 15.3333M255 15L256 16L255 15z"/>
<path style="fill:#42beb5; stroke:none;" d="M256 15L257 16L256 15z"/>
<path style="fill:#ea554a; stroke:none;" d="M375 15L376 16L375 15z"/>
<path style="fill:#42beb5; stroke:none;" d="M376 15L376 16L379 16L376 15z"/>
<path style="fill:#eeb42c; stroke:none;" d="M379 15L379 16L383 16L379 15M403 15L403 16L407 16L403 15z"/>
<path style="fill:#42beb5; stroke:none;" d="M407 15L407 16L410 16L407 15z"/>
<path style="fill:#ea554a; stroke:none;" d="M410 15L411 16L410 15z"/>
<path style="fill:#42beb5; stroke:none;" d="M178 16L179 17L178 16z"/>
<path style="fill:#eeb42c; stroke:none;" d="M179.667 16.3333L180.333 16.6667L179.667 16.3333M260 16L261 17L260 16z"/>
<path style="fill:#42beb5; stroke:none;" d="M261 16L262 17L261 16z"/>
<path style="fill:#ea554a; stroke:none;" d="M262 16L263 17L262 16z"/>
<path style="fill:#42beb5; stroke:none;" d="M366.667 16.3333L367.333 16.6667L366.667 16.3333z"/>
<path style="fill:#eeb42c; stroke:none;" d="M368.667 16.3333L369.333 16.6667L368.667 16.3333M416.667 16.3333L417.333 16.6667L416.667 16.3333z"/>
<path style="fill:#42beb5; stroke:none;" d="M418.667 16.3333L419.333 16.6667L418.667 16.3333M172 17L173 18L172 17z"/>
<path style="fill:#eeb42c; stroke:none;" d="M173.667 17.3333L174.333 17.6667L173.667 17.3333M265 17L266 18L265 17z"/>
<path style="fill:#42beb5; stroke:none;" d="M266 17L267 18L266 17z"/>
<path style="fill:#ea554a; stroke:none;" d="M358 17L359 18L358 17z"/>
<path style="fill:#42beb5; stroke:none;" d="M359 17L360 18L359 17z"/>
<path style="fill:#eeb42c; stroke:none;" d="M360.667 17.3333L361.333 17.6667L360.667 17.3333M424.667 17.3333L425.333 17.6667L424.667 17.3333z"/>
<path style="fill:#42beb5; stroke:none;" d="M426 17L427 18L426 17z"/>
<path style="fill:#ea554a; stroke:none;" d="M166 18L167 19L166 18z"/>
<path style="fill:#eeb42c; stroke:none;" d="M167 18L168 19L167 18M270 18L271 19L270 18z"/>
<path style="fill:#ea554a; stroke:none;" d="M271 18L272 19L271 18z"/>
<path style="fill:#42beb5; stroke:none;" d="M352 18L353 19L352 18z"/>
<path style="fill:#eeb42c; stroke:none;" d="M353.667 18.3333L354.333 18.6667L353.667 18.3333M431 18L432 19L431 18z"/>
<path style="fill:#42beb5; stroke:none;" d="M432 18L433 19L432 18z"/>
<path style="fill:#ea554a; stroke:none;" d="M433 18L434 19L433 18z"/>
<path style="fill:#42beb5; stroke:none;" d="M162 19L163 20L162 19z"/>
<path style="fill:#eeb42c; stroke:none;" d="M163 19L164 20L163 19M273 19L274 20L273 19z"/>
<path style="fill:#42beb5; stroke:none;" d="M274 19L275 20L274 19M347 19L348 20L347 19z"/>
<path style="fill:#eeb42c; stroke:none;" d="M348 19L349 20L348 19M436 19L437 20L436 19z"/>
<path style="fill:#42beb5; stroke:none;" d="M437 19L438 20L437 19M158 20L159 21L158 20z"/>
<path style="fill:#eeb42c; stroke:none;" d="M277 20L278 21L277 20z"/>
<path style="fill:#ea554a; stroke:none;" d="M278 20L279 21L278 20z"/>
<path style="fill:#42beb5; stroke:none;" d="M342 20L343 21L342 20z"/>
<path style="fill:#eeb42c; stroke:none;" d="M343 20L344 21L343 20M441 20L442 21L441 20z"/>
<path style="fill:#42beb5; stroke:none;" d="M442 20L443 21L442 20z"/>
<path style="fill:#eeb42c; stroke:none;" d="M154 21L155 22L154 21z"/>
<path style="fill:#42beb5; stroke:none;" d="M281 21L282 22L281 21M338 21L339 22L338 21z"/>
<path style="fill:#eeb42c; stroke:none;" d="M339 21L340 22L339 21M445 21L446 22L445 21z"/>
<path style="fill:#42beb5; stroke:none;" d="M446 21L447 22L446 21z"/>
<path style="fill:#ea554a; stroke:none;" d="M150 22L151 23L150 22z"/>
<path style="fill:#eeb42c; stroke:none;" d="M151 22L152 23L151 22M283 22L284 23L283 22z"/>
<path style="fill:#ea554a; stroke:none;" d="M284 22L285 23L284 22z"/>
<path style="fill:#42beb5; stroke:none;" d="M334 22L335 23L334 22z"/>
<path style="fill:#eeb42c; stroke:none;" d="M335 22L336 23L335 22M449 22L450 23L449 22z"/>
<path style="fill:#42beb5; stroke:none;" d="M450 22L451 23L450 22M147 23L148 24L147 23z"/>
<path style="fill:#eeb42c; stroke:none;" d="M286 23L287 24L286 23z"/>
<path style="fill:#ea554a; stroke:none;" d="M287 23L288 24L287 23z"/>
<path style="fill:#42beb5; stroke:none;" d="M330 23L331 24L330 23z"/>
<path style="fill:#eeb42c; stroke:none;" d="M331 23L332 24L331 23M453 23L454 24L453 23z"/>
<path style="fill:#ea554a; stroke:none;" d="M454 23L455 24L454 23z"/>
<path style="fill:#42beb5; stroke:none;" d="M144 24L145 25L144 24M289 24L290 25L289 24z"/>
<path style="fill:#ea554a; stroke:none;" d="M326 24L327 25L326 24z"/>
<path style="fill:#eeb42c; stroke:none;" d="M327 24L328 25L327 24M456 24L457 25L456 24z"/>
<path style="fill:#42beb5; stroke:none;" d="M457 24L458 25L457 24M141 25L142 26L141 25z"/>
<path style="fill:#eeb42c; stroke:none;" d="M291 25L292 26L291 25z"/>
<path style="fill:#ea554a; stroke:none;" d="M292 25L293 26L292 25z"/>
<path style="fill:#42beb5; stroke:none;" d="M323 25L324 26L323 25z"/>
<path style="fill:#eeb42c; stroke:none;" d="M324 25L325 26L324 25M459 25L460 26L459 25z"/>
<path style="fill:#42beb5; stroke:none;" d="M460 25L461 26L460 25M138 26L139 27L138 26M294 26L295 27L294 26M320 26L321 27L320 26M463 26L464 27L463 26z"/>
<path style="fill:#eeb42c; stroke:none;" d="M136 27L137 28L136 27M296 27L297 28L296 27z"/>
<path style="fill:#42beb5; stroke:none;" d="M317 27L318 28L317 27z"/>
<path style="fill:#eeb42c; stroke:none;" d="M465 27L466 28L465 27z"/>
<path style="fill:#ea554a; stroke:none;" d="M466 27L467 28L466 27z"/>
<path style="fill:#42beb5; stroke:none;" d="M133 28L134 29L133 28z"/>
<path style="fill:#eeb42c; stroke:none;" d="M298 28L299 29L298 28z"/>
<path style="fill:#42beb5; stroke:none;" d="M314 28L315 29L314 28z"/>
<path style="fill:#eeb42c; stroke:none;" d="M468 28L469 29L468 28M131 29L132 30L131 29M300 29L301 30L300 29z"/>
<path style="fill:#42beb5; stroke:none;" d="M311 29L312 30L311 29M471 29L472 30L471 29z"/>
<path style="fill:#ea554a; stroke:none;" d="M128 30L129 31L128 30z"/>
<path style="fill:#eeb42c; stroke:none;" d="M129 30L130 31L129 30M302 30L303 31L302 30z"/>
<path style="fill:#ea554a; stroke:none;" d="M308 30L309 31L308 30z"/>
<path style="fill:#eeb42c; stroke:none;" d="M309 30L310 31L309 30M473 30L474 31L473 30z"/>
<path style="fill:#42beb5; stroke:none;" d="M126 31L127 32L126 31M476 31L477 32L476 31M124 32L125 33L124 32z"/>
<path style="fill:#eeb42c; stroke:none;" d="M478 32L479 33L478 32M122 33L123 34L122 33M480 33L481 34L480 33M120 34L121 35L120 34z"/>
<path style="fill:#ea554a; stroke:none;" d="M483 34L484 35L483 34z"/>
<path style="fill:#eeb42c; stroke:none;" d="M118 35L119 36L118 35z"/>
<path style="fill:#ea554a; stroke:none;" d="M485 35L486 36L485 35z"/>
<path style="fill:#42beb5; stroke:none;" d="M116 36L117 37L116 36M487 36L488 37L487 36M114 37L115 38L114 37z"/>
<path style="fill:#ea554a; stroke:none;" d="M489 37L490 38L489 37M112 38L113 39L112 38M491 38L492 39L491 38z"/>
<path style="fill:#eeb42c; stroke:none;" d="M215 39L215 40L221 40L215 39z"/>
<path style="fill:#ea554a; stroke:none;" d="M283 357C267.938 344.52 251.852 335.85 238.09 321C231.767 314.177 226.581 299.58 218.79 295.028C213.578 291.982 203.95 293.339 198 292.41C184.556 290.309 170.568 286.035 159 278.771C112.099 249.319 110.225 180.199 151 145.3C165.618 132.789 184.263 123.719 203 119.662C210.937 117.944 221.561 119.32 228.91 116.397C236.982 113.185 243.551 99.515 250.09 93.5903C266.428 78.7848 288.42 69.9088 304 55C275.759 38.9285 238.476 37.0007 207 40.7145C172.297 44.8091 138.595 51.824 110 73.6543C36.5107 129.759 15.1901 247.345 79.1736 319C113.983 357.983 169.206 373.568 220 370.09C241.427 368.622 263.523 367.265 283 357z"/>
<path style="fill:#eeb42c; stroke:none;" d="M241 39L241 40L249 40L241 39M492 39L493 40L492 39M109 40L110 41L109 40M201 40L201 41L209 41L201 40M253 40L253 41L257 41L253 40M494 40L495 41L494 40z"/>
<path style="fill:#42beb5; stroke:none;" d="M107 41L108 42L107 41z"/>
<path style="fill:#eeb42c; stroke:none;" d="M191 41L191 42L196 42L191 41M260 41L260 42L264 42L260 41M377 41L377 42L384 42L377 41z"/>
<path style="fill:#ea554a; stroke:none;" d="M310 55C334.678 76.4456 359.194 92.1284 378 120C442.345 104.681 500.616 186.073 467.546 242C453.99 264.927 429.217 286.743 403 293.102C392.783 295.58 375.88 292.301 367.09 297.028C358.171 301.823 352.02 314.782 344 321.385C326.689 335.637 307.603 345.549 288 356C294.72 361.027 305.018 362.205 313 364.424C337.296 371.18 358.923 373.137 384 372.039C491.926 367.313 584.512 268.882 553.29 159C548.713 142.891 542.725 127.937 533.33 114C520.617 95.1401 503.783 81.128 485 68.6674C460.725 52.5634 435 44.037 406 41.9113C375.074 39.6443 338.751 42.2555 310 55z"/>
<path style="fill:#eeb42c; stroke:none;" d="M402 41L402 42L410 42L402 41z"/>
<path style="fill:#42beb5; stroke:none;" d="M496 41L497 42L496 41z"/>
<path style="fill:#eeb42c; stroke:none;" d="M184 42L184 43L187 43L184 42M266 42L266 43L269 43L266 42M364 42L364 43L372 43L364 42M413 42L413 43L418 43L413 42z"/>
<path style="fill:#42beb5; stroke:none;" d="M498 42L499 43L498 42z"/>
<path style="fill:#eeb42c; stroke:none;" d="M104 43L105 44L104 43M179.667 43.3333L180.333 43.6667L179.667 43.3333M271 43L271 44L274 44L271 43M352 43L352 44L357 44L352 43M421 43L421 44L425 44L421 43M499 43L500 44L499 43z"/>
<path style="fill:#ea554a; stroke:none;" d="M102 44L103 45L102 44z"/>
<path style="fill:#eeb42c; stroke:none;" d="M175.667 44.3333L176.333 44.6667L175.667 44.3333M275 44L275 45L278 45L275 44M345 44L345 45L349 45L345 44M427 44L427 45L430 45L427 44M501 44L502 45L501 44M101 45L102 46L101 45M171.667 45.3333L172.333 45.6667L171.667 45.3333M279.667 45.3333L280.333 45.6667L279.667 45.3333M340 45L340 46L343 46L340 45M432 45L432 46L435 46L432 45z"/>
<path style="fill:#42beb5; stroke:none;" d="M503 45L504 46L503 45z"/>
<path style="fill:#ea554a; stroke:none;" d="M99 46L100 47L99 46z"/>
<path style="fill:#eeb42c; stroke:none;" d="M167 46L167 47L170 47L167 46M283.667 46.3333L284.333 46.6667L283.667 46.3333M337.667 46.3333L338.333 46.6667L337.667 46.3333M436 46L436 47L439 47L436 46M504 46L505 47L504 46M98 47L99 48L98 47M163 47L163 48L166 48L163 47M286.667 47.3333L287.333 47.6667L286.667 47.3333M333.667 47.3333L334.333 47.6667L333.667 47.3333M440 47L440 48L443 48L440 47z"/>
<path style="fill:#42beb5; stroke:none;" d="M506 47L507 48L506 47z"/>
<path style="fill:#eeb42c; stroke:none;" d="M160.667 48.3333L161.333 48.6667L160.667 48.3333M289.667 48.3333L290.333 48.6667L289.667 48.3333M329.667 48.3333L330.333 48.6667L329.667 48.3333M444.667 48.3333L445.333 48.6667L444.667 48.3333M507 48L508 49L507 48z"/>
<path style="fill:#42beb5; stroke:none;" d="M95 49L96 50L95 49z"/>
<path style="fill:#eeb42c; stroke:none;" d="M157.667 49.3333L158.333 49.6667L157.667 49.3333M291.667 49.3333L292.333 49.6667L291.667 49.3333M325.667 49.3333L326.333 49.6667L325.667 49.3333M447.667 49.3333L448.333 49.6667L447.667 49.3333z"/>
<path style="fill:#42beb5; stroke:none;" d="M509 49L510 50L509 49z"/>
<path style="fill:#eeb42c; stroke:none;" d="M94 50L95 51L94 50M154 50L155 51L154 50M294.667 50.3333L295.333 50.6667L294.667 50.3333M321 50L321 51L324 51L321 50M450.667 50.3333L451.333 50.6667L450.667 50.3333M510 50L511 51L510 50M151.667 51.3333L152.333 51.6667L151.667 51.3333M296.667 51.3333L297.333 51.6667L296.667 51.3333M318.667 51.3333L319.333 51.6667L318.667 51.3333M452.667 51.3333L453.333 51.6667L452.667 51.3333z"/>
<path style="fill:#ea554a; stroke:none;" d="M512 51L513 52L512 51z"/>
<path style="fill:#42beb5; stroke:none;" d="M91 52L92 53L91 52z"/>
<path style="fill:#eeb42c; stroke:none;" d="M148.667 52.3333L149.333 52.6667L148.667 52.3333M299 52L300 53L299 52M315.667 52.3333L316.333 52.6667L315.667 52.3333M455.667 52.3333L456.333 52.6667L455.667 52.3333M513 52L514 53L513 52M90 53L91 54L90 53M145.667 53.3333L146.333 53.6667L145.667 53.3333M301 53L302 54L301 53M312.667 53.3333L313.333 53.6667L312.667 53.3333M457.667 53.3333L458.333 53.6667L457.667 53.3333M89 54L90 55L89 54M143.667 54.3333L144.333 54.6667L143.667 54.3333M303 54L304 55L303 54M309 54L309 56L311 54L309 54M460 54L461 55L460 54z"/>
<path style="fill:#42beb5; stroke:none;" d="M516 54L517 55L516 54z"/>
<path style="fill:#ea554a; stroke:none;" d="M87 55L88 56L87 55z"/>
<path style="fill:#eeb42c; stroke:none;" d="M141 55L142 56L141 55M304 55L305 56L304 55M462 55L463 56L462 55M517 55L518 56L517 55z"/>
<path style="fill:#42beb5; stroke:none;" d="M86 56L87 57L86 56z"/>
<path style="fill:#eeb42c; stroke:none;" d="M138.667 56.3333L139.333 56.6667L138.667 56.3333M302 56L303 57L302 56M311 56L312 57L311 56M464 56L465 57L464 56M518 56L519 57L518 56M85 57L86 58L85 57M136.667 57.3333L137.333 57.6667L136.667 57.3333M301 57L302 58L301 57M313 57L314 58L313 57M466 57L467 58L466 57z"/>
<path style="fill:#ea554a; stroke:none;" d="M520 57L521 58L520 57z"/>
<path style="fill:#eeb42c; stroke:none;" d="M84 58L85 59L84 58M134.667 58.3333L135.333 58.6667L134.667 58.3333M299 58L300 59L299 58M314 58L315 59L314 58M468 58L469 59L468 58z"/>
<path style="fill:#42beb5; stroke:none;" d="M521 58L522 59L521 58z"/>
<path style="fill:#eeb42c; stroke:none;" d="M132.667 59.3333L133.333 59.6667L132.667 59.3333M298 59L299 60L298 59M316 59L317 60L316 59M470 59L471 60L470 59M522 59L523 60L522 59M130.667 60.3333L131.333 60.6667L130.667 60.3333M296 60L297 61L296 60M318 60L319 61L318 60M471.667 60.3333L472.333 60.6667L471.667 60.3333M523 60L524 61L523 60z"/>
<path style="fill:#ea554a; stroke:none;" d="M80 61L81 62L80 61z"/>
<path style="fill:#eeb42c; stroke:none;" d="M128.667 61.3333L129.333 61.6667L128.667 61.3333M294 61L295 62L294 61M319 61L320 62L319 61M473 61L474 62L473 61z"/>
<path style="fill:#ea554a; stroke:none;" d="M79 62L80 63L79 62z"/>
<path style="fill:#eeb42c; stroke:none;" d="M127 62L128 63L127 62M292 62L293 63L292 62M320.667 62.3333L321.333 62.6667L320.667 62.3333M475 62L476 63L475 62z"/>
<path style="fill:#42beb5; stroke:none;" d="M78 63L79 64L78 63z"/>
<path style="fill:#eeb42c; stroke:none;" d="M125 63L126 64L125 63M291 63L292 64L291 63M322 63L323 64L322 63M476.667 63.3333L477.333 63.6667L476.667 63.3333z"/>
<path style="fill:#42beb5; stroke:none;" d="M527 63L528 64L527 63M77 64L78 65L77 64z"/>
<path style="fill:#eeb42c; stroke:none;" d="M123 64L124 65L123 64M289 64L290 65L289 64M323 64L324 65L323 64M478 64L479 65L478 64z"/>
<path style="fill:#42beb5; stroke:none;" d="M528 64L529 65L528 64M76 65L77 66L76 65z"/>
<path style="fill:#eeb42c; stroke:none;" d="M121.667 65.3333L122.333 65.6667L121.667 65.3333M287 65L288 66L287 65M325 65L326 66L325 65M480 65L481 66L480 65z"/>
<path style="fill:#42beb5; stroke:none;" d="M529 65L530 66L529 65z"/>
<path style="fill:#eeb42c; stroke:none;" d="M75 66L76 67L75 66M120 66L121 67L120 66M286 66L287 67L286 66M326 66L327 67L326 66M481 66L482 67L481 66M530 66L531 67L530 66M74 67L75 68L74 67M118 67L119 68L118 67M284 67L285 68L284 67M483 67L484 68L483 67M531 67L532 68L531 67M73 68L74 69L73 68M117 68L118 69L117 68M329 68L330 69L329 68M484 68L485 69L484 68M532 68L533 69L532 68M72 69L73 70L72 69M115 69L116 70L115 69M281 69L282 70L281 69M330 69L331 70L330 69M486 69L487 70L486 69M533 69L534 70L533 69z"/>
<path style="fill:#42beb5; stroke:none;" d="M71 70L72 71L71 70z"/>
<path style="fill:#eeb42c; stroke:none;" d="M114 70L115 71L114 70M331 70L332 71L331 70M487 70L488 71L487 70M534 70L535 71L534 70M70 71L71 72L70 71M112 71L113 72L112 71M278 71L279 72L278 71M489 71L490 72L489 71M535 71L536 72L535 71z"/>
<path style="fill:#42beb5; stroke:none;" d="M69 72L70 73L69 72z"/>
<path style="fill:#eeb42c; stroke:none;" d="M111 72L112 73L111 72M334 72L335 73L334 72M490 72L491 73L490 72M536 72L537 73L536 72z"/>
<path style="fill:#42beb5; stroke:none;" d="M68 73L69 74L68 73z"/>
<path style="fill:#eeb42c; stroke:none;" d="M110 73L111 74L110 73M275 73L276 74L275 73M335 73L336 74L335 73M492 73L493 74L492 73M537 73L538 74L537 73z"/>
<path style="fill:#42beb5; stroke:none;" d="M67 74L68 75L67 74z"/>
<path style="fill:#eeb42c; stroke:none;" d="M108 74L109 75L108 74M274 74L275 75L274 74M336 74L337 75L336 74M493 74L494 75L493 74M538 74L539 75L538 74z"/>
<path style="fill:#ea554a; stroke:none;" d="M66 75L67 76L66 75z"/>
<path style="fill:#eeb42c; stroke:none;" d="M107 75L108 76L107 75M272 75L273 76L272 75M495 75L496 76L495 75z"/>
<path style="fill:#42beb5; stroke:none;" d="M539 75L540 76L539 75z"/>
<path style="fill:#eeb42c; stroke:none;" d="M106 76L107 77L106 76M271 76L272 77L271 76M339 76L340 77L339 76M496 76L497 77L496 76z"/>
<path style="fill:#42beb5; stroke:none;" d="M540 76L541 77L540 76z"/>
<path style="fill:#eeb42c; stroke:none;" d="M105 77L106 78L105 77M340 77L341 78L340 77M498 77L499 78L498 77z"/>
<path style="fill:#ea554a; stroke:none;" d="M541 77L542 78L541 77z"/>
<path style="fill:#eeb42c; stroke:none;" d="M103 78L104 79L103 78M268 78L269 79L268 78M341 78L342 79L341 78M499 78L500 79L499 78M63 79L64 80L63 79M102 79L103 80L102 79M267 79L268 80L267 79M342 79L343 80L342 79M500 79L501 80L500 79M62 80L63 81L62 80M101 80L102 81L101 80M343 80L344 81L343 80M501 80L502 81L501 80z"/>
<path style="fill:#42beb5; stroke:none;" d="M61 81L62 82L61 81z"/>
<path style="fill:#eeb42c; stroke:none;" d="M100 81L101 82L100 81M264 81L265 82L264 81M344 81L345 82L344 81M503 81L504 82L503 81M544 81L545 82L544 81z"/>
<path style="fill:#ea554a; stroke:none;" d="M60 82L61 83L60 82z"/>
<path style="fill:#eeb42c; stroke:none;" d="M99 82L100 83L99 82M263 82L264 83L263 82M504 82L505 83L504 82M545 82L546 83L545 82M98 83L99 84L98 83M262 83L263 84L262 83M505 83L506 84L505 83z"/>
<path style="fill:#42beb5; stroke:none;" d="M546 83L547 84L546 83z"/>
<path style="fill:#eeb42c; stroke:none;" d="M97 84L98 85L97 84M506 84L507 85L506 84M58 85L59 86L58 85M96 85L97 86L96 85M259 85L260 86L259 85z"/>
<path style="fill:#42beb5; stroke:none;" d="M57 86L58 87L57 86z"/>
<path style="fill:#eeb42c; stroke:none;" d="M95 86L96 87L95 86M258 86L259 87L258 86M350 86L351 87L350 86M509 86L510 87L509 86M548 86L549 87L548 86z"/>
<path style="fill:#ea554a; stroke:none;" d="M56 87L57 88L56 87z"/>
<path style="fill:#eeb42c; stroke:none;" d="M94 87L95 88L94 87M351 87L352 88L351 87M510 87L511 88L510 87M549 87L550 88L549 87M93 88L94 89L93 88M352 88L353 89L352 88M511 88L512 89L511 88z"/>
<path style="fill:#ea554a; stroke:none;" d="M550 88L551 89L550 88z"/>
<path style="fill:#eeb42c; stroke:none;" d="M55 89L56 90L55 89M254 89L255 90L254 89M353 89L354 90L353 89M512 89L513 90L512 89M54 90L55 91L54 90M253 90L254 91L253 90M354 90L355 91L354 90M513 90L514 91L513 90z"/>
<path style="fill:#ea554a; stroke:none;" d="M53 91L54 92L53 91z"/>
<path style="fill:#eeb42c; stroke:none;" d="M252 91L253 92L252 91M355 91L356 92L355 91M514 91L515 92L514 91z"/>
<path style="fill:#42beb5; stroke:none;" d="M552 91L553 92L552 91z"/>
<path style="fill:#eeb42c; stroke:none;" d="M356 92L357 93L356 92M515 92L516 93L515 92z"/>
<path style="fill:#ea554a; stroke:none;" d="M553 92L554 93L553 92z"/>
<path style="fill:#eeb42c; stroke:none;" d="M52 93L53 94L52 93M89 93L90 94L89 93M357 93L358 94L357 93M516 93L517 94L516 93z"/>
<path style="fill:#42beb5; stroke:none;" d="M51 94L52 95L51 94z"/>
<path style="fill:#eeb42c; stroke:none;" d="M88 94L89 95L88 94M248 94L249 95L248 94M517 94L518 95L517 94M554 94L555 95L554 94M87 95L88 96L87 95M247 95L248 96L247 95M518 95L519 96L518 95z"/>
<path style="fill:#ea554a; stroke:none;" d="M555 95L556 96L555 95z"/>
<path style="fill:#eeb42c; stroke:none;" d="M86 96L87 97L86 96M360 96L361 97L360 96M519 96L520 97L519 96M49 97L50 98L49 97M85 97L86 98L85 97M361 97L362 98L361 97M520 97L521 98L520 97M556 97L557 98L556 97z"/>
<path style="fill:#ea554a; stroke:none;" d="M48 98L49 99L48 98z"/>
<path style="fill:#eeb42c; stroke:none;" d="M84 98L85 99L84 98M521 98L522 99L521 98z"/>
<path style="fill:#ea554a; stroke:none;" d="M557 98L558 99L557 98z"/>
<path style="fill:#eeb42c; stroke:none;" d="M83 99L84 100L83 99M244 99L245 100L244 99M362 99L363 100L362 99M47 100L48 101L47 100M82 100L83 101L82 100M243 100L244 101L243 100M363 100L364 101L363 100M558 100L559 101L558 100z"/>
<path style="fill:#ea554a; stroke:none;" d="M46 101L47 102L46 101z"/>
<path style="fill:#eeb42c; stroke:none;" d="M242 101L243 102L242 101M364 101L365 102L364 101M523 101L524 102L523 101z"/>
<path style="fill:#ea554a; stroke:none;" d="M559 101L560 102L559 101z"/>
<path style="fill:#eeb42c; stroke:none;" d="M81 102L82 103L81 102M241 102L242 103L241 102M365 102L366 103L365 102M524 102L525 103L524 102M45 103L46 104L45 103M80 103L81 104L80 103M240 103L241 104L240 103M366 103L367 104L366 103M525 103L526 104L525 103z"/>
<path style="fill:#42beb5; stroke:none;" d="M560 103L561 104L560 103z"/>
<path style="fill:#eeb42c; stroke:none;" d="M79 104L80 105L79 104M239.333 104.667L239.667 105.333L239.333 104.667M526 104L527 105L526 104M44 105L45 106L44 105M78 105L79 106L78 105M367 105L368 106L367 105M527 105L528 106L527 105M561 105L562 106L561 105z"/>
<path style="fill:#42beb5; stroke:none;" d="M43 106L44 107L43 106z"/>
<path style="fill:#eeb42c; stroke:none;" d="M77.3333 106.667L77.6667 107.333L77.3333 106.667M238 106L239 107L238 106M368 106L369 107L368 106M237 107L238 108L237 107M369 107L370 108L369 107M528 107L529 108L528 107M562 107L563 108L562 107M42 108L43 109L42 108M76 108L77 109L76 108M236 108L237 109L236 108M529 108L530 109L529 108z"/>
<path style="fill:#ea554a; stroke:none;" d="M563 108L564 109L563 108M41 109L42 110L41 109z"/>
<path style="fill:#eeb42c; stroke:none;" d="M75 109L76 110L75 109M235.333 109.667L235.667 110.333L235.333 109.667M370 109L371 110L370 109M530 109L531 110L530 109M74 110L75 111L74 110M371 110L372 111L371 110z"/>
<path style="fill:#42beb5; stroke:none;" d="M564 110L565 111L564 110M40 111L41 112L40 111z"/>
<path style="fill:#eeb42c; stroke:none;" d="M234 111L235 112L234 111M372 111L373 112L372 111M531 111L532 112L531 111M73 112L74 113L73 112M233 112L234 113L233 112M532 112L533 113L532 112z"/>
<path style="fill:#42beb5; stroke:none;" d="M565 112L566 113L565 112z"/>
<path style="fill:#eeb42c; stroke:none;" d="M39 113L40 114L39 113M72 113L73 114L72 113M232 113L233 114L232 113M373 113L374 114L373 113M533.333 113.667L533.667 114.333L533.333 113.667M71.3333 114.667L71.6667 115.333L71.3333 114.667M374.333 114.667L374.667 115.333L374.333 114.667z"/>
<path style="fill:#42beb5; stroke:none;" d="M566 114L567 115L566 114z"/>
<path style="fill:#eeb42c; stroke:none;" d="M38 115L39 116L38 115M231 115L232 116L231 115M534 115L535 116L534 115z"/>
<path style="fill:#42beb5; stroke:none;" d="M37 116L38 117L37 116z"/>
<path style="fill:#eeb42c; stroke:none;" d="M70 116L71 117L70 116M230 116L231 117L230 116M375 116L376 117L375 116M535.333 116.667L535.667 117.333L535.333 116.667z"/>
<path style="fill:#42beb5; stroke:none;" d="M567 116L568 117L567 116z"/>
<path style="fill:#eeb42c; stroke:none;" d="M69 117L70 118L69 117M219 294C215.636 282.322 208.723 271.716 205.208 260C203.485 254.254 204.099 245.384 200.973 240.376C195.277 231.251 185.055 228.659 184.094 216C182.859 199.736 196.492 196.755 202.487 184.816C207.392 175.047 207.103 162.347 211.065 152C215.873 139.442 224.324 128.999 230 117C194.274 117 152.791 132.29 133.066 164C114.381 194.038 118.328 244.206 145.015 268.829C164.926 287.201 192.492 294 219 294M376.333 117.667L376.667 118.333L376.333 117.667z"/>
<path style="fill:#42beb5; stroke:none;" d="M36 118L37 119L36 118z"/>
<path style="fill:#eeb42c; stroke:none;" d="M536 118L537 119L536 118z"/>
<path style="fill:#42beb5; stroke:none;" d="M568 118L569 119L568 118z"/>
<path style="fill:#eeb42c; stroke:none;" d="M68 119L69 120L68 119M377 119L378 120L377 119M378 120C381.656 131.552 388.186 142.182 391.573 154C393.967 162.354 393.771 173.995 397.589 181.61C402.291 190.989 413.971 191.569 413.971 205C413.971 217.694 402.766 225.07 396.635 234.961C391.975 242.477 391.348 252.876 387.688 261C382.058 273.499 372.801 283.791 367 296C382.923 296 399.936 296.07 415 290.021C452.779 274.851 477.195 237.704 477.946 198C478.773 154.265 421.005 107.288 378 120z"/>
<path style="fill:#42beb5; stroke:none;" d="M35 120L36 121L35 120z"/>
<path style="fill:#eeb42c; stroke:none;" d="M67 120L68 121L67 120M537 120L538 121L537 120z"/>
<path style="fill:#42beb5; stroke:none;" d="M569 120L570 121L569 120z"/>
<path style="fill:#eeb42c; stroke:none;" d="M538 121L539 122L538 121M34 122L35 123L34 122M66 122L67 123L66 122z"/>
<path style="fill:#ea554a; stroke:none;" d="M570 122L571 123L570 122z"/>
<path style="fill:#eeb42c; stroke:none;" d="M65.3333 123.667L65.6667 124.333L65.3333 123.667M539 123L540 124L539 123M570 123L571 124L570 123M33 124L34 125L33 124M64 125L65 126L64 125M540 125L541 126L540 125M571 125L572 126L571 125M32 126L33 127L32 126M541.333 126.667L541.667 127.333L541.333 126.667M63 127L64 128L63 127z"/>
<path style="fill:#42beb5; stroke:none;" d="M572 127L573 128L572 127z"/>
<path style="fill:#eeb42c; stroke:none;" d="M31 128L32 129L31 128M62.3333 128.667L62.6667 129.333L62.3333 128.667M542.333 128.667L542.667 129.333L542.333 128.667M30 130L31 131L30 130M61 130L62 131L61 130M543.333 130.667L543.667 131.333L543.333 130.667M573 130L574 131L573 130z"/>
<path style="fill:#42beb5; stroke:none;" d="M29 132L30 133L29 132z"/>
<path style="fill:#eeb42c; stroke:none;" d="M60 132L61 133L60 132z"/>
<path style="fill:#42beb5; stroke:none;" d="M574 132L575 133L574 132z"/>
<path style="fill:#eeb42c; stroke:none;" d="M544 133L545 134L544 133M574 133L575 134L574 133z"/>
<path style="fill:#ea554a; stroke:none;" d="M28 134L29 135L28 134z"/>
<path style="fill:#eeb42c; stroke:none;" d="M59 134L60 135L59 134M28 135L29 136L28 135M58.3333 135.667L58.6667 136.333L58.3333 135.667M545 135L546 136L545 135z"/>
<path style="fill:#42beb5; stroke:none;" d="M575 135L576 136L575 135M27 137L28 138L27 137z"/>
<path style="fill:#eeb42c; stroke:none;" d="M57.3333 137.667L57.6667 138.333L57.3333 137.667M546.333 137.667L546.667 138.333L546.333 137.667z"/>
<path style="fill:#42beb5; stroke:none;" d="M576 138L577 139L576 138z"/>
<path style="fill:#eeb42c; stroke:none;" d="M56.3333 139.667L56.6667 140.333L56.3333 139.667M26 140L27 141L26 140M547.333 140.667L547.667 141.333L547.333 140.667z"/>
<path style="fill:#42beb5; stroke:none;" d="M577 141L578 142L577 141z"/>
<path style="fill:#ea554a; stroke:none;" d="M25 142L26 143L25 142z"/>
<path style="fill:#eeb42c; stroke:none;" d="M55 142L56 143L55 142M25 143L26 144L25 143M548 143L549 144L548 143M54 144L55 145L54 144z"/>
<path style="fill:#42beb5; stroke:none;" d="M578 144L579 145L578 144z"/>
<path style="fill:#ea554a; stroke:none;" d="M24 145L25 146L24 145z"/>
<path style="fill:#eeb42c; stroke:none;" d="M549.333 145.667L549.667 146.333L549.333 145.667M578 145L579 146L578 145M24 146L25 147L24 146M53.3333 146.667L53.6667 147.333L53.3333 146.667z"/>
<path style="fill:#ea554a; stroke:none;" d="M23 148L24 149L23 148z"/>
<path style="fill:#eeb42c; stroke:none;" d="M52.3333 148.667L52.6667 149.333L52.3333 148.667M550.333 148.667L550.667 149.333L550.333 148.667z"/>
<path style="fill:#42beb5; stroke:none;" d="M579 148L580 149L579 148z"/>
<path style="fill:#eeb42c; stroke:none;" d="M23 149L24 150L23 149z"/>
<path style="fill:#ea554a; stroke:none;" d="M22 151L23 152L22 151z"/>
<path style="fill:#eeb42c; stroke:none;" d="M51.3333 151.667L51.6667 152.333L51.3333 151.667M551.333 151.667L551.667 152.333L551.333 151.667z"/>
<path style="fill:#42beb5; stroke:none;" d="M580 151L581 152L580 151z"/>
<path style="fill:#eeb42c; stroke:none;" d="M22 152L23 153L22 152M580 152L581 153L580 152M50.3333 154.667L50.6667 155.333L50.3333 154.667z"/>
<path style="fill:#42beb5; stroke:none;" d="M21 155L22 156L21 155z"/>
<path style="fill:#eeb42c; stroke:none;" d="M552.333 155.667L552.667 156.333L552.333 155.667z"/>
<path style="fill:#ea554a; stroke:none;" d="M581 155L582 156L581 155z"/>
<path style="fill:#eeb42c; stroke:none;" d="M21 156L22 157L21 156M287 188L306 176L301 187C310.31 188.387 312.925 168.584 302.024 173.669C300.174 174.532 298.621 175.788 297 177L308 156C299.866 158.407 288.347 179.793 287 188z"/>
<path style="fill:#42beb5; stroke:none;" d="M581 156L582 157L581 156z"/>
<path style="fill:#eeb42c; stroke:none;" d="M49.3333 157.667L49.6667 158.333L49.3333 157.667M581 157L582 158L581 157z"/>
<path style="fill:#ea554a; stroke:none;" d="M20 158L21 159L20 158z"/>
<path style="fill:#eeb42c; stroke:none;" d="M553.333 158.667L553.667 159.333L553.333 158.667M20 159L21 160L20 159M48 160L48 163L49 163L48 160z"/>
<path style="fill:#42beb5; stroke:none;" d="M582 160L583 161L582 160z"/>
<path style="fill:#eeb42c; stroke:none;" d="M243 161L241 164L243 161z"/>
<path style="fill:#ea554a; stroke:none;" d="M244 161C239.526 165.985 237.516 173.878 230 174L234 177L229 191L247 173L247 172L240 173L246 162L244 161z"/>
<path style="fill:#eeb42c; stroke:none;" d="M245 161L246 162L245 161M582 161L583 162L582 161z"/>
<path style="fill:#42beb5; stroke:none;" d="M19 162L20 163L19 162z"/>
<path style="fill:#fefcfc; stroke:none;" d="M174.285 163.047C168.926 165.907 164.188 175.169 163.344 180.999C162.589 186.217 165.794 189.773 170.997 187.412C177.077 184.653 180.476 177.386 180.903 171C181.158 167.192 179.708 160.153 174.285 163.047z"/>
<path style="fill:#eeb42c; stroke:none;" d="M554.333 162.667L554.667 163.333L554.333 162.667M19 163L20 164L19 163M245 163L246 164L245 163z"/>
<path style="fill:#fefcfc; stroke:none;" d="M420 163L411 187L428 171.434L439 169C432.98 162.184 425.684 167.171 420 172L422 163L420 163z"/>
<path style="fill:#eeb42c; stroke:none;" d="M244 164L245 165L244 164M47 165L47 168L48 168L47 165M555 165L555 168L556 168L555 165z"/>
<path style="fill:#42beb5; stroke:none;" d="M583 165L584 166L583 165z"/>
<path style="fill:#ea554a; stroke:none;" d="M18 166L19 167L18 166z"/>
<path style="fill:#eeb42c; stroke:none;" d="M239 166L240 167L239 166M370 178L357 183C358.793 176.8 369.364 175.522 369.364 169.145C369.364 165.427 364.905 166.74 363.003 167.898C358.967 170.357 354.28 175.037 354.077 180.01C353.63 190.992 367.703 184.448 370 178M583.333 166.667L583.667 167.333L583.333 166.667M18 167L19 168L18 167M242 167L243 168L242 167M167 185C174.821 182.319 176.936 175.656 177 168C169.744 170.086 167.163 178.057 167 185M238 168L239 169L238 168M241 169L242 170L241 169z"/>
<path style="fill:#fefcfc; stroke:none;" d="M361 174L367 169L361 174z"/>
<path style="fill:#eeb42c; stroke:none;" d="M46 170L46 173L47 173L46 170M237 170L238 171L237 170M556 170L556 174L557 174L556 170z"/>
<path style="fill:#42beb5; stroke:none;" d="M17 171L18 172L17 171z"/>
<path style="fill:#eeb42c; stroke:none;" d="M240 171L240 173L242 173L240 171z"/>
<path style="fill:#ea554a; stroke:none;" d="M584 171L585 172L584 171z"/>
<path style="fill:#eeb42c; stroke:none;" d="M17 172L18 173L17 172M236 172L237 173L236 172M247.667 172.333L248.333 172.667L247.667 172.333M419 172L420 173L419 172z"/>
<path style="fill:#42beb5; stroke:none;" d="M584 172L585 173L584 172z"/>
<path style="fill:#eeb42c; stroke:none;" d="M230 173L231 174L230 173M246 173L247 174L246 173M584 173L585 174L584 173M229.333 174.667L229.667 175.333L229.333 174.667M232.667 174.333L233.333 174.667L232.667 174.333M243.667 174.333L244.333 174.667L243.667 174.333z"/>
<path style="fill:#ea554a; stroke:none;" d="M16 175L17 176L16 175z"/>
<path style="fill:#eeb42c; stroke:none;" d="M45.3333 175.667L45.6667 176.333L45.3333 175.667M240 175L241 176L240 175z"/>
<path style="fill:#42beb5; stroke:none;" d="M16 176L17 177L16 176z"/>
<path style="fill:#eeb42c; stroke:none;" d="M230 176L231 177L230 176M238 176L239 177L238 176M557 176L557 180L558 180L557 176M16 177L17 178L16 177M237 178L238 179L237 178z"/>
<path style="fill:#ea554a; stroke:none;" d="M585 178L586 179L585 178z"/>
<path style="fill:#eeb42c; stroke:none;" d="M44 179L44 182L45 182L44 179M233 179L234 180L233 179z"/>
<path style="fill:#42beb5; stroke:none;" d="M585 179L586 180L585 179z"/>
<path style="fill:#eeb42c; stroke:none;" d="M236 180L237 181L236 180M585 180L585 183L586 183L585 180z"/>
<path style="fill:#ea554a; stroke:none;" d="M15 181L16 182L15 181z"/>
<path style="fill:#eeb42c; stroke:none;" d="M232 181L233 182L232 181z"/>
<path style="fill:#42beb5; stroke:none;" d="M15 182L16 183L15 182z"/>
<path style="fill:#eeb42c; stroke:none;" d="M235 182L236 183L235 182M15 183L16 184L15 183M231.333 183.667L231.667 184.333L231.333 183.667z"/>
<path style="fill:#42beb5; stroke:none;" d="M398 183L396 235C413.871 221.809 423.421 193.657 398 183z"/>
<path style="fill:#eeb42c; stroke:none;" d="M558 183L558 189L559 189L558 183M43 184L43 187L44 187L43 184M234.333 184.667L234.667 185.333L234.333 184.667M230.333 185.667L230.667 186.333L230.333 185.667z"/>
<path style="fill:#ea554a; stroke:none;" d="M288 185L289 186L288 185M287 186L288 187L287 186z"/>
<path style="fill:#42beb5; stroke:none;" d="M201 239L202 187C180.1 195.485 176.91 231.009 201 239z"/>
<path style="fill:#eeb42c; stroke:none;" d="M233 187L234 188L233 187z"/>
<path style="fill:#42beb5; stroke:none;" d="M14 188L15 189L14 188z"/>
<path style="fill:#eeb42c; stroke:none;" d="M229 188L230 189L229 188M14.3333 189.667L14.6667 190.333L14.3333 189.667M232 189L233 190L232 189z"/>
<path style="fill:#ea554a; stroke:none;" d="M586 189L587 190L586 189z"/>
<path style="fill:#eeb42c; stroke:none;" d="M42 190L42 195L43 195L42 190M231 190L232 191L231 190z"/>
<path style="fill:#42beb5; stroke:none;" d="M586 190L586 194L587 194L586 190z"/>
<path style="fill:#eeb42c; stroke:none;" d="M229.667 191.333L230.333 191.667L229.667 191.333M586 194L586 197L587 197L586 194M559 195L559 213L560 213L559 195z"/>
<path style="fill:#ea554a; stroke:none;" d="M13 196L14 197L13 196z"/>
<path style="fill:#42beb5; stroke:none;" d="M13 197L13 200L14 200L13 197z"/>
<path style="fill:#eeb42c; stroke:none;" d="M41 199L41 208L42 208L41 199M13 200L13 204L14 204L13 200z"/>
<path style="fill:#42beb5; stroke:none;" d="M355 237L366 215C360.503 217.808 350.063 231.357 355 237z"/>
<path style="fill:#eeb42c; stroke:none;" d="M586 218L586 222L587 222L586 218M41 221L41 230L42 230L41 221M558 221L558 227L559 227L558 221z"/>
<path style="fill:#42beb5; stroke:none;" d="M586.333 222.667L586.667 223.333L586.333 222.667z"/>
<path style="fill:#ea554a; stroke:none;" d="M586 224L587 225L586 224z"/>
<path style="fill:#eeb42c; stroke:none;" d="M13 226L13 230L14 230L13 226M307 272L308 272L310 270L311 273L312 273L325 246C331.597 247.607 338.12 242.764 341.231 236.985C342.634 234.38 344.035 229.12 340.566 227.367C335.964 225.041 329.832 232.083 327.3 235.004C318.502 245.156 310.723 259.07 307 272M256 228L256 229L259 229L256 228M280.667 228.333L281.333 228.667L280.667 228.333z"/>
<path style="fill:#42beb5; stroke:none;" d="M361 241L365 242C367.896 237.401 375.993 237.919 377.654 232.043C378.966 227.406 372.293 228.321 370.001 229.458C365.185 231.846 362.699 236.138 361 241z"/>
<path style="fill:#eeb42c; stroke:none;" d="M253 229L254 230L253 229z"/>
<path style="fill:#ea554a; stroke:none;" d="M244 232C236.792 245.754 226.726 262.114 226 278C233.766 272.869 237.661 253.656 241 245C247.329 246.814 253.412 243.908 257.606 238.907C259.28 236.91 262.184 232.304 259.381 230.032C255.717 227.061 248.21 231.979 244 232z"/>
<path style="fill:#eeb42c; stroke:none;" d="M260 229L261 230L260 229M277.667 229.333L278.333 229.667L277.667 229.333z"/>
<path style="fill:#ea554a; stroke:none;" d="M280 244C278.285 244.252 276.672 244.639 274.976 244.981C273.353 245.308 266.917 244.871 270.466 241.994C272.207 240.582 290.163 235.788 282.392 230.068C270.651 221.426 256.168 257.005 275.941 247.452C277.759 246.574 278.707 245.48 280 244z"/>
<path style="fill:#eeb42c; stroke:none;" d="M283 229L284 230L283 229z"/>
<path style="fill:#fefcfc; stroke:none;" d="M339 229C332.8 232.94 328.728 237.127 326 244C332.553 243.124 341.891 236.504 339 229z"/>
<path style="fill:#eeb42c; stroke:none;" d="M585.333 229.667L585.667 230.333L585.333 229.667z"/>
<path style="fill:#42beb5; stroke:none;" d="M13.3333 230.667L13.6667 231.333L13.3333 230.667z"/>
<path style="fill:#eeb42c; stroke:none;" d="M275 230L276 231L275 230M284 230L284 234L285 234L284 230M308.266 230.938C303.567 232.391 298.088 234.48 295.688 239.04C293.224 243.724 294.015 251.229 301.001 249.328C306.002 247.967 310.842 242.896 312.346 238C313.351 234.73 312.912 229.501 308.266 230.938M557 230L557 235L558 235L557 230M249 231L250 232L249 231M255.667 231.333L256.333 231.667L255.667 231.333z"/>
<path style="fill:#fefcfc; stroke:none;" d="M257 231C251.027 233.847 245.897 236.791 243 243C248.66 242.417 258.616 238.004 257 231z"/>
<path style="fill:#eeb42c; stroke:none;" d="M258.333 231.667L258.667 232.333L258.333 231.667M273 231L274 232L273 231M276 233L276 234L281 232L279 236L282 231L276 233z"/>
<path style="fill:#fefcfc; stroke:none;" d="M367 236L375 231L367 236z"/>
<path style="fill:#42beb5; stroke:none;" d="M585 231L586 232L585 231z"/>
<path style="fill:#ea554a; stroke:none;" d="M13 232L14 233L13 232z"/>
<path style="fill:#eeb42c; stroke:none;" d="M246.667 232.333L247.333 232.667L246.667 232.333M253 232L254 233L253 232M272 232L273 233L272 232z"/>
<path style="fill:#fefcfc; stroke:none;" d="M272 238L281 232L272 238z"/>
<path style="fill:#ea554a; stroke:none;" d="M585 232L586 233L585 232z"/>
<path style="fill:#eeb42c; stroke:none;" d="M243 233L244 234L243 233M251 233L252 234L251 233M271 233L272 234L271 233z"/>
<path style="fill:#fefcfc; stroke:none;" d="M297 246C304.124 245.207 309.207 240.124 310 233C302.9 235.546 299.435 238.864 297 246z"/>
<path style="fill:#eeb42c; stroke:none;" d="M242 234L243 235L242 234M257 234L258 235L257 234M260 234L261 235L260 234M274 234L275 235L274 234M42 235L42 240L43 240L42 235M248 235L249 236L248 235M256 235L257 236L256 235M273 235L274 236L273 235M283 235L284 236L283 235M352 235L346 248L347 249L349 249L355 238L355 237L352 235M241 236L242 237L241 236M247 236L248 237L247 236M259 236L260 237L259 236M272 236L273 237L272 236M277 236L278 237L277 236M282 236L283 237L282 236M556 236L556 240L557 240L556 236M584 236L585 237L584 236M246 237L247 238L246 237M267 237L268 238L267 237M271 237L272 238L271 237M274.667 237.333L275.333 237.667L274.667 237.333M281 237L282 238L281 237z"/>
<path style="fill:#42beb5; stroke:none;" d="M584 237L585 238L584 237z"/>
<path style="fill:#eeb42c; stroke:none;" d="M14.3333 238.667L14.6667 239.333L14.3333 238.667M245 238L246 239L245 238M253 238L254 239L253 238M266 238L267 239L266 238M280 238L281 239L280 238z"/>
<path style="fill:#ea554a; stroke:none;" d="M584 238L585 239L584 238z"/>
<path style="fill:#eeb42c; stroke:none;" d="M244 239L245 240L244 239M252 239L253 240L252 239M278 239L279 240L278 239z"/>
<path style="fill:#42beb5; stroke:none;" d="M14 240L15 241L14 240z"/>
<path style="fill:#eeb42c; stroke:none;" d="M251 240L252 241L251 240M265.333 240.667L265.667 241.333L265.333 240.667M275.667 240.333L276.333 240.667L275.667 240.333z"/>
<path style="fill:#ea554a; stroke:none;" d="M14 241L15 242L14 241z"/>
<path style="fill:#eeb42c; stroke:none;" d="M239 241L240 242L239 241M249 241L250 242L249 241M269 241L269 242L272 242L269 241M361 241C362.562 251.001 372.288 248.083 377 242C369.961 244.036 367.482 244.417 361 241z"/>
<path style="fill:#42beb5; stroke:none;" d="M374 242L374 243L378 242L374 242z"/>
<path style="fill:#eeb42c; stroke:none;" d="M555 241L555 244L556 244L555 241M583.333 241.667L583.667 242.333L583.333 241.667M242 242L243 243L242 242M247 242L248 243L247 242M253 242L254 243L253 242M268 242L268 245L269 245L268 242M277 243L277 244L283 242L277 243M43 243L43 247L44 247L43 243M243.667 243.333L244.333 243.667L243.667 243.333M252 243L253 244L252 243z"/>
<path style="fill:#42beb5; stroke:none;" d="M583 243L584 244L583 243z"/>
<path style="fill:#eeb42c; stroke:none;" d="M237 244L238 245L237 244M250 244L251 245L250 244M275.667 244.333L276.333 244.667L275.667 244.333M15 245L16 246L15 245M248 245L249 246L248 245M269 245L269 246L274 246L269 245M279 245L280 246L279 245z"/>
<path style="fill:#42beb5; stroke:none;" d="M15 246L16 247L15 246z"/>
<path style="fill:#eeb42c; stroke:none;" d="M236 246L237 247L236 246M240 246L241 247L240 246M243 246L243 247L246 247L243 246M265 246L266 247L265 246M278 246L279 247L278 246M554.333 246.667L554.667 247.333L554.333 246.667M582 246L583 247L582 246z"/>
<path style="fill:#ea554a; stroke:none;" d="M15 247L16 248L15 247z"/>
<path style="fill:#eeb42c; stroke:none;" d="M276 247L277 248L276 247z"/>
<path style="fill:#42beb5; stroke:none;" d="M582 247L583 248L582 247z"/>
<path style="fill:#eeb42c; stroke:none;" d="M235 248L236 249L235 248M239.333 248.667L239.667 249.333L239.333 248.667M267 248L268 249L267 248M273.667 248.333L274.333 248.667L273.667 248.333M44.3333 249.667L44.6667 250.333L44.3333 249.667M553.333 249.667L553.667 250.333L553.333 249.667M234 250L235 251L234 250M581 250L582 251L581 250M16 251L17 252L16 251M238 251L239 252L238 251z"/>
<path style="fill:#42beb5; stroke:none;" d="M581 251L582 252L581 251M16 252L17 253L16 252z"/>
<path style="fill:#eeb42c; stroke:none;" d="M233.333 252.667L233.667 253.333L233.333 252.667M552.333 252.667L552.667 253.333L552.333 252.667M45 253L45 256L46 256L45 253M237 254L238 255L237 254M580 254L581 255L580 254M17.3333 255.667L17.6667 256.333L17.3333 255.667M232 255L233 256L232 255M551.333 255.667L551.667 256.333L551.333 255.667z"/>
<path style="fill:#42beb5; stroke:none;" d="M580 255L581 256L580 255z"/>
<path style="fill:#eeb42c; stroke:none;" d="M236 256L237 257L236 256z"/>
<path style="fill:#ea554a; stroke:none;" d="M17 257L18 258L17 257z"/>
<path style="fill:#eeb42c; stroke:none;" d="M46 257L46 260L47 260L46 257M231.333 257.667L231.667 258.333L231.333 257.667M579 257L580 258L579 257M235.333 258.667L235.667 259.333L235.333 258.667M550.333 258.667L550.667 259.333L550.333 258.667z"/>
<path style="fill:#42beb5; stroke:none;" d="M579 258L580 259L579 258z"/>
<path style="fill:#eeb42c; stroke:none;" d="M18 260L19 261L18 260M230 260L231 261L230 260z"/>
<path style="fill:#42beb5; stroke:none;" d="M18 261L19 262L18 261z"/>
<path style="fill:#eeb42c; stroke:none;" d="M47 261L48 262L47 261M234 261L235 262L234 261M549 261L550 262L549 261z"/>
<path style="fill:#42beb5; stroke:none;" d="M578 261L579 262L578 261z"/>
<path style="fill:#eeb42c; stroke:none;" d="M48.3333 263.667L48.6667 264.333L48.3333 263.667M229 263L230 264L229 263M233.333 263.667L233.667 264.333L233.333 263.667M548.333 263.667L548.667 264.333L548.333 263.667M19 264L20 265L19 264z"/>
<path style="fill:#42beb5; stroke:none;" d="M577 264L578 265L577 264z"/>
<path style="fill:#ea554a; stroke:none;" d="M19 265L20 266L19 265z"/>
<path style="fill:#eeb42c; stroke:none;" d="M547.333 265.667L547.667 266.333L547.333 265.667M49 266L50 267L49 266M228 266L229 267L228 266M232 266L233 267L232 266M576 266L577 267L576 266M20 267L21 268L20 267M546.333 267.667L546.667 268.333L546.333 267.667z"/>
<path style="fill:#42beb5; stroke:none;" d="M576 267L577 268L576 267M20 268L21 269L20 268z"/>
<path style="fill:#eeb42c; stroke:none;" d="M50.3333 268.667L50.6667 269.333L50.3333 268.667M231.333 268.667L231.667 269.333L231.333 268.667M227 269L228 270L227 269M545.333 269.667L545.667 270.333L545.333 269.667M575 269L576 270L575 269z"/>
<path style="fill:#ea554a; stroke:none;" d="M308 270L304 284C308.453 281.307 310.974 275.044 310 270L308 270M575 270L576 271L575 270z"/>
<path style="fill:#42beb5; stroke:none;" d="M21 271L22 272L21 271z"/>
<path style="fill:#eeb42c; stroke:none;" d="M51 271L52 272L51 271M226.333 271.667L226.667 272.333L226.333 271.667M230.333 271.667L230.667 272.333L230.333 271.667M544.333 271.667L544.667 272.333L544.333 271.667z"/>
<path style="fill:#42beb5; stroke:none;" d="M574 272L575 273L574 272z"/>
<path style="fill:#eeb42c; stroke:none;" d="M52.3333 273.667L52.6667 274.333L52.3333 273.667M306 273L307 274L306 273M543.333 273.667L543.667 274.333L543.333 273.667M22 274L23 275L22 274M229 274L230 275L229 274M310 274L311 275L310 274M573 274L574 275L573 274M225 275L225 278L226 278L225 275M305.333 275.667L305.667 276.333L305.333 275.667M542 275L543 276L542 275M53 276L54 277L53 276M228 276L229 277L228 276M309 276L310 277L309 276M572 276L573 277L572 276z"/>
<path style="fill:#42beb5; stroke:none;" d="M23 277L24 278L23 277z"/>
<path style="fill:#eeb42c; stroke:none;" d="M541 277L542 278L541 277z"/>
<path style="fill:#ea554a; stroke:none;" d="M572 277L573 278L572 277z"/>
<path style="fill:#eeb42c; stroke:none;" d="M54.3333 278.667L54.6667 279.333L54.3333 278.667M226.667 278.333L227.333 278.667L226.667 278.333M304.333 278.667L304.667 279.333L304.333 278.667M308 278L309 279L308 278M540.333 278.667L540.667 279.333L540.333 278.667z"/>
<path style="fill:#42beb5; stroke:none;" d="M571 279L572 280L571 279M24 280L25 281L24 280z"/>
<path style="fill:#eeb42c; stroke:none;" d="M307.333 280.667L307.667 281.333L307.333 280.667M539 280L540 281L539 280M55 281L56 282L55 281M303 281L303 284L304 284L303 281z"/>
<path style="fill:#42beb5; stroke:none;" d="M570 281L571 282L570 281z"/>
<path style="fill:#eeb42c; stroke:none;" d="M25 282L26 283L25 282M538 282L539 283L538 282z"/>
<path style="fill:#ea554a; stroke:none;" d="M25 283L26 284L25 283z"/>
<path style="fill:#eeb42c; stroke:none;" d="M56 283L57 284L56 283M306 283L307 284L306 283M537 283L538 284L537 283M569 283L570 284L569 283M304.667 284.333L305.333 284.667L304.667 284.333z"/>
<path style="fill:#42beb5; stroke:none;" d="M26 285L27 286L26 285z"/>
<path style="fill:#eeb42c; stroke:none;" d="M57 285L58 286L57 285M536 285L537 286L536 285z"/>
<path style="fill:#42beb5; stroke:none;" d="M568 285L569 286L568 285z"/>
<path style="fill:#eeb42c; stroke:none;" d="M535 286L536 287L535 286M27 287L28 288L27 287M58 287L59 288L58 287z"/>
<path style="fill:#42beb5; stroke:none;" d="M567 287L568 288L567 287z"/>
<path style="fill:#ea554a; stroke:none;" d="M27 288L28 289L27 288z"/>
<path style="fill:#eeb42c; stroke:none;" d="M534 288L535 289L534 288M28 289L29 290L28 289M59 289L60 290L59 289M533 289L534 290L533 289z"/>
<path style="fill:#42beb5; stroke:none;" d="M566 289L567 290L566 289M28 290L29 291L28 290z"/>
<path style="fill:#eeb42c; stroke:none;" d="M60 291L61 292L60 291M532 291L533 292L532 291z"/>
<path style="fill:#42beb5; stroke:none;" d="M565 291L566 292L565 291M29 292L30 293L29 292z"/>
<path style="fill:#eeb42c; stroke:none;" d="M531 292L532 293L531 292M61 293L62 294L61 293z"/>
<path style="fill:#ea554a; stroke:none;" d="M564 293L565 294L564 293z"/>
<path style="fill:#42beb5; stroke:none;" d="M30 294L31 295L30 294z"/>
<path style="fill:#eeb42c; stroke:none;" d="M219 294L220 295L219 294M530 294L531 295L530 294M563 294L564 295L563 294M62 295L63 296L62 295M220 295L221 296L220 295M529 295L530 296L529 295M31 296L32 297L31 296M63 296L64 297L63 296M366 296L367 297L366 296M528 296L529 297L528 296z"/>
<path style="fill:#42beb5; stroke:none;" d="M562 296L563 297L562 296z"/>
<path style="fill:#eeb42c; stroke:none;" d="M221 297L222 298L221 297M365 297L366 298L365 297M32 298L33 299L32 298M64 298L65 299L64 298M364 298L365 299L364 298M527 298L528 299L527 298z"/>
<path style="fill:#ea554a; stroke:none;" d="M561 298L562 299L561 298z"/>
<path style="fill:#eeb42c; stroke:none;" d="M222 299L223 300L222 299M526 299L527 300L526 299M560 299L561 300L560 299M33 300L34 301L33 300M65 300L66 301L65 300M223 300L224 301L223 300M363 300L364 301L363 300M525 300L526 301L525 300M66 301L67 302L66 301M362 301L363 302L362 301z"/>
<path style="fill:#42beb5; stroke:none;" d="M559 301L560 302L559 301M34 302L35 303L34 302z"/>
<path style="fill:#eeb42c; stroke:none;" d="M224 302L225 303L224 302M361 302L362 303L361 302M524 302L525 303L524 302M558 302L559 303L558 302M67 303L68 304L67 303M360 303L361 304L360 303M523 303L524 304L523 303z"/>
<path style="fill:#42beb5; stroke:none;" d="M35 304L36 305L35 304z"/>
<path style="fill:#eeb42c; stroke:none;" d="M68 304L69 305L68 304M225 304L226 305L225 304M522 304L523 305L522 304z"/>
<path style="fill:#42beb5; stroke:none;" d="M557 304L558 305L557 304z"/>
<path style="fill:#eeb42c; stroke:none;" d="M226 305L227 306L226 305M359 305L360 306L359 305z"/>
<path style="fill:#ea554a; stroke:none;" d="M36 306L37 307L36 306z"/>
<path style="fill:#eeb42c; stroke:none;" d="M69 306L70 307L69 306M358 306L359 307L358 306M521 306L522 307L521 306M37 307L38 308L37 307M70 307L71 308L70 307M227 307L228 308L227 307M357 307L358 308L357 307M520 307L521 308L520 307z"/>
<path style="fill:#42beb5; stroke:none;" d="M555 307L556 308L555 307z"/>
<path style="fill:#eeb42c; stroke:none;" d="M228 308L229 309L228 308M356 308L357 309L356 308M519 308L520 309L519 308M554 308L555 309L554 308M38 309L39 310L38 309M71 309L72 310L71 309M355 309L356 310L355 309M518 309L519 310L518 309M72 310L73 311L72 310M229 310L230 311L229 310M517 310L518 311L517 310z"/>
<path style="fill:#42beb5; stroke:none;" d="M553 310L554 311L553 310M39 311L40 312L39 311z"/>
<path style="fill:#eeb42c; stroke:none;" d="M73 311L74 312L73 311M230 311L231 312L230 311M354 311L355 312L354 311M552 311L553 312L552 311M40 312L41 313L40 312M231 312L232 313L231 312M353 312L354 313L353 312M74 313L75 314L74 313M352 313L353 314L352 313M515 313L516 314L515 313z"/>
<path style="fill:#42beb5; stroke:none;" d="M41 314L42 315L41 314z"/>
<path style="fill:#eeb42c; stroke:none;" d="M75 314L76 315L75 314M232 314L233 315L232 314M351 314L352 315L351 314M514 314L515 315L514 314z"/>
<path style="fill:#42beb5; stroke:none;" d="M550 314L551 315L550 314z"/>
<path style="fill:#eeb42c; stroke:none;" d="M76 315L77 316L76 315M233 315L234 316L233 315M350 315L351 316L350 315M513 315L514 316L513 315M549 315L550 316L549 315z"/>
<path style="fill:#ea554a; stroke:none;" d="M42 316L43 317L42 316z"/>
<path style="fill:#eeb42c; stroke:none;" d="M234 316L235 317L234 316M349 316L350 317L349 316M512 316L513 317L512 316M548 316L549 317L548 316M43 317L44 318L43 317M348 317L349 318L348 317M511 317L512 318L511 317M78 318L79 319L78 318M235 318L236 319L235 318M347 318L348 319L347 318M510 318L511 319L510 318z"/>
<path style="fill:#ea554a; stroke:none;" d="M547 318L548 319L547 318z"/>
<path style="fill:#eeb42c; stroke:none;" d="M79 319L80 320L79 319M236 319L237 320L236 319M346 319L347 320L346 319M509 319L510 320L509 319z"/>
<path style="fill:#42beb5; stroke:none;" d="M546 319L547 320L546 319M45 320L46 321L45 320z"/>
<path style="fill:#eeb42c; stroke:none;" d="M80 320L81 321L80 320M237 320L238 321L237 320M345 320L346 321L345 320M508 320L509 321L508 320M545 320L546 321L545 320M46 321L47 322L46 321M81 321L82 322L81 321M238 321L239 322L238 321M343 321L344 322L343 321M507 321L508 322L507 321M544 321L545 322L544 321M82 322L83 323L82 322M239 322L240 323L239 322M342 322L343 323L342 322M506 322L507 323L506 322z"/>
<path style="fill:#42beb5; stroke:none;" d="M47 323L48 324L47 323z"/>
<path style="fill:#eeb42c; stroke:none;" d="M83 323L84 324L83 323M240 323L241 324L240 323M341 323L342 324L341 323M48 324L49 325L48 324M84 324L85 325L84 324M340 324L341 325L340 324M503 324L504 325L503 324z"/>
<path style="fill:#ea554a; stroke:none;" d="M542 324L543 325L542 324z"/>
<path style="fill:#eeb42c; stroke:none;" d="M85 325L86 326L85 325M502 325L503 326L502 325z"/>
<path style="fill:#42beb5; stroke:none;" d="M541 325L542 326L541 325z"/>
<path style="fill:#eeb42c; stroke:none;" d="M86 326L87 327L86 326M337 326L338 327L337 326M501 326L502 327L501 326z"/>
<path style="fill:#42beb5; stroke:none;" d="M540 326L541 327L540 326M50 327L51 328L50 327z"/>
<path style="fill:#eeb42c; stroke:none;" d="M87 327L88 328L87 327M336 327L337 328L336 327M500 327L501 328L500 327z"/>
<path style="fill:#42beb5; stroke:none;" d="M539 327L540 328L539 327z"/>
<path style="fill:#eeb42c; stroke:none;" d="M51 328L52 329L51 328M498 328L499 329L498 328M538 328L539 329L538 328M52 329L53 330L52 329M90 329L91 330L90 329M333 329L334 330L333 329M497 329L498 330L497 329M537 329L538 330L537 329M91 330L92 331L91 330M332 330L333 331L332 330M496 330L497 331L496 330M536 330L537 331L536 330M92 331L93 332L92 331M330 331L331 332L330 331M535 331L536 332L535 331z"/>
<path style="fill:#42beb5; stroke:none;" d="M54 332L55 333L54 332z"/>
<path style="fill:#eeb42c; stroke:none;" d="M93 332L94 333L93 332M329 332L330 333L329 332M493 332L494 333L493 332M534 332L535 333L534 332z"/>
<path style="fill:#42beb5; stroke:none;" d="M55 333L56 334L55 333z"/>
<path style="fill:#eeb42c; stroke:none;" d="M94 333L95 334L94 333M492 333L493 334L492 333M533 333L534 334L533 333M56 334L57 335L56 334M326 334L327 335L326 334M490 334L491 335L490 334M532 334L533 335L532 334M57 335L58 336L57 335M97 335L98 336L97 335M489 335L490 336L489 335M531 335L532 336L531 335M98 336L99 337L98 336M253 336L254 337L253 336M323 336L324 337L323 336M487 336L488 337L487 336M530 336L531 337L530 336M99 337L100 338L99 337M254 337L255 338L254 337M321 337L322 338L321 337M486 337L487 338L486 337M529 337L530 338L529 337M255 338L256 339L255 338M320 338L321 339L320 338M484 338L485 339L484 338M528 338L529 339L528 338z"/>
<path style="fill:#ea554a; stroke:none;" d="M60 339L61 340L60 339z"/>
<path style="fill:#eeb42c; stroke:none;" d="M102 339L103 340L102 339M318 339L319 340L318 339M483 339L484 340L483 339M527 339L528 340L527 339z"/>
<path style="fill:#ea554a; stroke:none;" d="M61 340L62 341L61 340z"/>
<path style="fill:#eeb42c; stroke:none;" d="M103 340L104 341L103 340M316 340L317 341L316 340M481 340L482 341L481 340M526 340L527 341L526 340z"/>
<path style="fill:#ea554a; stroke:none;" d="M62 341L63 342L62 341z"/>
<path style="fill:#eeb42c; stroke:none;" d="M259 341L260 342L259 341M315 341L316 342L315 341M479 341L480 342L479 341z"/>
<path style="fill:#42beb5; stroke:none;" d="M525 341L526 342L525 341M63 342L64 343L63 342z"/>
<path style="fill:#eeb42c; stroke:none;" d="M106 342L107 343L106 342M260 342L261 343L260 342M313 342L314 343L313 342M478 342L479 343L478 342z"/>
<path style="fill:#42beb5; stroke:none;" d="M524 342L525 343L524 342M64 343L65 344L64 343z"/>
<path style="fill:#eeb42c; stroke:none;" d="M107 343L108 344L107 343M261 343L262 344L261 343M312 343L313 344L312 343M476 343L477 344L476 343z"/>
<path style="fill:#42beb5; stroke:none;" d="M523 343L524 344L523 343M65 344L66 345L65 344z"/>
<path style="fill:#eeb42c; stroke:none;" d="M310 344L311 345L310 344M474 344L475 345L474 344z"/>
<path style="fill:#ea554a; stroke:none;" d="M522 344L523 345L522 344z"/>
<path style="fill:#42beb5; stroke:none;" d="M66 345L67 346L66 345z"/>
<path style="fill:#eeb42c; stroke:none;" d="M110 345L111 346L110 345M264 345L265 346L264 345M308 345L309 346L308 345M473 345L474 346L473 345z"/>
<path style="fill:#42beb5; stroke:none;" d="M67 346L68 347L67 346z"/>
<path style="fill:#eeb42c; stroke:none;" d="M112 346L113 347L112 346M265 346L266 347L265 346M306.667 346.333L307.333 346.667L306.667 346.333M471 346L472 347L471 346M519 346L520 347L519 346z"/>
<path style="fill:#ea554a; stroke:none;" d="M68 347L69 348L68 347z"/>
<path style="fill:#eeb42c; stroke:none;" d="M113 347L114 348L113 347M267 347L268 348L267 347M304.667 347.333L305.333 347.667L304.667 347.333M469 347L470 348L469 347M518 347L519 348L518 347z"/>
<path style="fill:#ea554a; stroke:none;" d="M69 348L70 349L69 348z"/>
<path style="fill:#eeb42c; stroke:none;" d="M115 348L116 349L115 348M268 348L269 349L268 348M303 348L304 349L303 348M467.667 348.333L468.333 348.667L467.667 348.333z"/>
<path style="fill:#42beb5; stroke:none;" d="M517 348L518 349L517 348z"/>
<path style="fill:#ea554a; stroke:none;" d="M70 349L71 350L70 349z"/>
<path style="fill:#eeb42c; stroke:none;" d="M117 349L118 350L117 349M270 349L271 350L270 349M301 349L302 350L301 349M465.667 349.333L466.333 349.667L465.667 349.333z"/>
<path style="fill:#ea554a; stroke:none;" d="M516 349L517 350L516 349z"/>
<path style="fill:#eeb42c; stroke:none;" d="M119 350L120 351L119 350M271 350L272 351L271 350M299 350L300 351L299 350M463.667 350.333L464.333 350.667L463.667 350.333M121 351L122 352L121 351M273 351L274 352L273 351M296.667 351.333L297.333 351.667L296.667 351.333M461.667 351.333L462.333 351.667L461.667 351.333M513 351L514 352L513 351M74 352L75 353L74 352M123 352L124 353L123 352M275 352L276 353L275 352M294.667 352.333L295.333 352.667L294.667 352.333M459.667 352.333L460.333 352.667L459.667 352.333z"/>
<path style="fill:#42beb5; stroke:none;" d="M512 352L513 353L512 352z"/>
<path style="fill:#eeb42c; stroke:none;" d="M75 353L76 354L75 353M125 353L126 354L125 353M277 353L278 354L277 353M292.667 353.333L293.333 353.667L292.667 353.333M457.667 353.333L458.333 353.667L457.667 353.333z"/>
<path style="fill:#ea554a; stroke:none;" d="M511 353L512 354L511 353z"/>
<path style="fill:#42beb5; stroke:none;" d="M76 354L77 355L76 354z"/>
<path style="fill:#eeb42c; stroke:none;" d="M127 354L128 355L127 354M279 354L280 355L279 354M290 354L291 355L290 354M455.667 354.333L456.333 354.667L455.667 354.333M509 354L510 355L509 354z"/>
<path style="fill:#42beb5; stroke:none;" d="M77 355L78 356L77 355z"/>
<path style="fill:#eeb42c; stroke:none;" d="M129.667 355.333L130.333 355.667L129.667 355.333M281 355L282 356L281 355M288 355L289 356L288 355M453.667 355.333L454.333 355.667L453.667 355.333z"/>
<path style="fill:#42beb5; stroke:none;" d="M508 355L509 356L508 355z"/>
<path style="fill:#eeb42c; stroke:none;" d="M131.667 356.333L132.333 356.667L131.667 356.333M283 356L282 358L284 358L283 356M287 356L288 357L287 356M451 356L452 357L451 356z"/>
<path style="fill:#ea554a; stroke:none;" d="M507 356L508 357L507 356z"/>
<path style="fill:#eeb42c; stroke:none;" d="M80 357L81 358L80 357M134.667 357.333L135.333 357.667L134.667 357.333M288.667 357.333L289.333 357.667L288.667 357.333M448.667 357.333L449.333 357.667L448.667 357.333M505 357L506 358L505 357M81 358L82 359L81 358M137.667 358.333L138.333 358.667L137.667 358.333M280 358L281 359L280 358M291.667 358.333L292.333 358.667L291.667 358.333M446.667 358.333L447.333 358.667L446.667 358.333z"/>
<path style="fill:#42beb5; stroke:none;" d="M504 358L505 359L504 358M82 359L83 360L82 359z"/>
<path style="fill:#eeb42c; stroke:none;" d="M140.667 359.333L141.333 359.667L140.667 359.333M277.667 359.333L278.333 359.667L277.667 359.333M294.667 359.333L295.333 359.667L294.667 359.333M443.667 359.333L444.333 359.667L443.667 359.333M502 359L503 360L502 359M143 360L143 361L146 361L143 360M274.667 360.333L275.333 360.667L274.667 360.333M297.667 360.333L298.333 360.667L297.667 360.333M441.667 360.333L442.333 360.667L441.667 360.333z"/>
<path style="fill:#42beb5; stroke:none;" d="M501 360L502 361L501 360z"/>
<path style="fill:#eeb42c; stroke:none;" d="M85 361L86 362L85 361M147.667 361.333L148.333 361.667L147.667 361.333M272 361L273 362L272 361M300 361L300 362L303 362L300 361M438.667 361.333L439.333 361.667L438.667 361.333M499 361L500 362L499 361z"/>
<path style="fill:#42beb5; stroke:none;" d="M86 362L87 363L86 362z"/>
<path style="fill:#eeb42c; stroke:none;" d="M151.667 362.333L152.333 362.667L151.667 362.333M269.667 362.333L270.333 362.667L269.667 362.333M304.667 362.333L305.333 362.667L304.667 362.333M436.667 362.333L437.333 362.667L436.667 362.333z"/>
<path style="fill:#42beb5; stroke:none;" d="M498 362L499 363L498 362z"/>
<path style="fill:#eeb42c; stroke:none;" d="M88 363L89 364L88 363M154.667 363.333L155.333 363.667L154.667 363.333M266.667 363.333L267.333 363.667L266.667 363.333M308.667 363.333L309.333 363.667L308.667 363.333M433.667 363.333L434.333 363.667L433.667 363.333M496 363L497 364L496 363z"/>
<path style="fill:#42beb5; stroke:none;" d="M89 364L90 365L89 364z"/>
<path style="fill:#eeb42c; stroke:none;" d="M157 364L157 365L160 365L157 364M262 364L262 365L265 365L262 364M312.667 364.333L313.333 364.667L312.667 364.333M430.667 364.333L431.333 364.667L430.667 364.333z"/>
<path style="fill:#42beb5; stroke:none;" d="M495 364L496 365L495 364z"/>
<path style="fill:#ea554a; stroke:none;" d="M90 365L91 366L90 365z"/>
<path style="fill:#eeb42c; stroke:none;" d="M161.667 365.333L162.333 365.667L161.667 365.333M258 365L258 366L261 366L258 365M315.667 365.333L316.333 365.667L315.667 365.333M427.667 365.333L428.333 365.667L427.667 365.333M493 365L494 366L493 365M92 366L93 367L92 366M165.667 366.333L166.333 366.667L165.667 366.333M254 366L254 367L257 367L254 366M318 366L318 367L321 367L318 366M424.667 366.333L425.333 366.667L424.667 366.333M491 366L492 367L491 366z"/>
<path style="fill:#ea554a; stroke:none;" d="M492 366L493 367L492 366M93 367L94 368L93 367z"/>
<path style="fill:#eeb42c; stroke:none;" d="M168 367L168 368L171 368L168 367M249 367L249 368L253 368L249 367M322.667 367.333L323.333 367.667L322.667 367.333M420 367L420 368L423 368L420 367z"/>
<path style="fill:#42beb5; stroke:none;" d="M490 367L491 368L490 367z"/>
<path style="fill:#eeb42c; stroke:none;" d="M95 368L96 369L95 368M173 368L173 369L176 369L173 368M243 368L243 369L248 369L243 368M325 368L325 369L328 369L325 368M416 368L416 369L419 369L416 368M488 368L489 369L488 368z"/>
<path style="fill:#ea554a; stroke:none;" d="M96 369L97 370L96 369z"/>
<path style="fill:#eeb42c; stroke:none;" d="M97 369L98 370L97 369M178 369L178 370L183 370L178 369M232 369L232 370L240 370L232 369M329 369L329 370L332 370L329 369M411 369L411 370L414 370L411 369M486 369L487 370L486 369z"/>
<path style="fill:#42beb5; stroke:none;" d="M98 370L99 371L98 370z"/>
<path style="fill:#eeb42c; stroke:none;" d="M186 370L186 371L193 371L186 370M216 370L216 371L228 371L216 370M334 370L334 371L337 371L334 370M404 370L404 371L409 371L404 370z"/>
<path style="fill:#42beb5; stroke:none;" d="M485 370L486 371L485 370z"/>
<path style="fill:#eeb42c; stroke:none;" d="M100 371L101 372L100 371M339 371L339 372L343 372L339 371M395 371L395 372L402 372L395 371z"/>
<path style="fill:#42beb5; stroke:none;" d="M483 371L484 372L483 371z"/>
<path style="fill:#ea554a; stroke:none;" d="M101 372L102 373L101 372z"/>
<path style="fill:#eeb42c; stroke:none;" d="M346 372L346 373L353 373L346 372M379 372L379 373L390 373L379 372z"/>
<path style="fill:#42beb5; stroke:none;" d="M481 372L482 373L481 372M103 373L104 374L103 373z"/>
<path style="fill:#eeb42c; stroke:none;" d="M359 373L359 374L370 374L359 373M479 373L480 374L479 373z"/>
<path style="fill:#42beb5; stroke:none;" d="M105 374L106 375L105 374z"/>
<path style="fill:#eeb42c; stroke:none;" d="M477 374L478 375L477 374M107 375L108 376L107 375M475 375L476 376L475 375M109 376L110 377L109 376M473 376L474 377L473 376M111 377L112 378L111 377M471 377L472 378L471 377z"/>
<path style="fill:#ea554a; stroke:none;" d="M112 378L113 379L112 378z"/>
<path style="fill:#eeb42c; stroke:none;" d="M113 378L114 379L113 378z"/>
<path style="fill:#42beb5; stroke:none;" d="M469 378L470 379L469 378z"/>
<path style="fill:#eeb42c; stroke:none;" d="M115 379L116 380L115 379z"/>
<path style="fill:#42beb5; stroke:none;" d="M467 379L468 380L467 379z"/>
<path style="fill:#eeb42c; stroke:none;" d="M117 380L118 381L117 380z"/>
<path style="fill:#42beb5; stroke:none;" d="M283 380L284 381L283 380z"/>
<path style="fill:#ea554a; stroke:none;" d="M284.667 380.333L285.333 380.667L284.667 380.333z"/>
<path style="fill:#42beb5; stroke:none;" d="M286 380L287 381L286 380z"/>
<path style="fill:#eeb42c; stroke:none;" d="M464 380L465 381L464 380z"/>
<path style="fill:#ea554a; stroke:none;" d="M465 380L466 381L465 380z"/>
<path style="fill:#42beb5; stroke:none;" d="M119 381L120 382L119 381z"/>
<path style="fill:#eeb42c; stroke:none;" d="M280 381L281 382L280 381M289 381L290 382L289 381M462 381L463 382L462 381z"/>
<path style="fill:#42beb5; stroke:none;" d="M121 382L122 383L121 382M278 382L279 383L278 382M291 382L292 383L291 382z"/>
<path style="fill:#eeb42c; stroke:none;" d="M292 382L293 383L292 382z"/>
<path style="fill:#42beb5; stroke:none;" d="M460 382L461 383L460 382z"/>
<path style="fill:#ea554a; stroke:none;" d="M123 383L124 384L123 383z"/>
<path style="fill:#eeb42c; stroke:none;" d="M124 383L125 384L124 383M275 383L276 384L275 383z"/>
<path style="fill:#ea554a; stroke:none;" d="M276 383L277 384L276 383z"/>
<path style="fill:#42beb5; stroke:none;" d="M294 383L295 384L294 383z"/>
<path style="fill:#eeb42c; stroke:none;" d="M457 383L458 384L457 383z"/>
<path style="fill:#ea554a; stroke:none;" d="M458 383L459 384L458 383z"/>
<path style="fill:#42beb5; stroke:none;" d="M126 384L127 385L126 384M273 384L274 385L273 384M297 384L298 385L297 384M455 384L456 385L455 384z"/>
<path style="fill:#ea554a; stroke:none;" d="M128 385L129 386L128 385z"/>
<path style="fill:#eeb42c; stroke:none;" d="M129 385L130 386L129 385M270 385L271 386L270 385z"/>
<path style="fill:#ea554a; stroke:none;" d="M271 385L272 386L271 385z"/>
<path style="fill:#42beb5; stroke:none;" d="M300 385L301 386L300 385z"/>
<path style="fill:#eeb42c; stroke:none;" d="M301 385L302 386L301 385M452 385L453 386L452 385z"/>
<path style="fill:#42beb5; stroke:none;" d="M131 386L132 387L131 386z"/>
<path style="fill:#eeb42c; stroke:none;" d="M132 386L133 387L132 386M267 386L268 387L267 386z"/>
<path style="fill:#42beb5; stroke:none;" d="M268 386L269 387L268 386z"/>
<path style="fill:#ea554a; stroke:none;" d="M303 386L304 387L303 386z"/>
<path style="fill:#eeb42c; stroke:none;" d="M304 386L305 387L304 386M449 386L450 387L449 386z"/>
<path style="fill:#ea554a; stroke:none;" d="M450 386L451 387L450 386z"/>
<path style="fill:#42beb5; stroke:none;" d="M134 387L135 388L134 387z"/>
<path style="fill:#eeb42c; stroke:none;" d="M135 387L136 388L135 387z"/>
<path style="fill:#42beb5; stroke:none;" d="M265 387L266 388L265 387M307 387L308 388L307 387z"/>
<path style="fill:#eeb42c; stroke:none;" d="M308 387L309 388L308 387M446 387L447 388L446 387z"/>
<path style="fill:#42beb5; stroke:none;" d="M447 387L448 388L447 387M137 388L138 389L137 388z"/>
<path style="fill:#eeb42c; stroke:none;" d="M262 388L263 389L262 388z"/>
<path style="fill:#ea554a; stroke:none;" d="M263 388L264 389L263 388z"/>
<path style="fill:#42beb5; stroke:none;" d="M310 388L311 389L310 388z"/>
<path style="fill:#eeb42c; stroke:none;" d="M443 388L444 389L443 388z"/>
<path style="fill:#42beb5; stroke:none;" d="M444 388L445 389L444 388M140 389L141 390L140 389z"/>
<path style="fill:#eeb42c; stroke:none;" d="M141 389L142 390L141 389M258 389L259 390L258 389z"/>
<path style="fill:#42beb5; stroke:none;" d="M259 389L260 390L259 389M313 389L314 390L313 389z"/>
<path style="fill:#eeb42c; stroke:none;" d="M440 389L441 390L440 389z"/>
<path style="fill:#ea554a; stroke:none;" d="M441 389L442 390L441 389M143 390L144 391L143 390z"/>
<path style="fill:#eeb42c; stroke:none;" d="M144 390L145 391L144 390M254 390L255 391L254 390z"/>
<path style="fill:#42beb5; stroke:none;" d="M255 390L256 391L255 390z"/>
<path style="fill:#ea554a; stroke:none;" d="M256 390L257 391L256 390z"/>
<path style="fill:#42beb5; stroke:none;" d="M316 390L317 391L316 390M437 390L438 391L437 390z"/>
<path style="fill:#ea554a; stroke:none;" d="M438 390L439 391L438 390z"/>
<path style="fill:#42beb5; stroke:none;" d="M147 391L148 392L147 391z"/>
<path style="fill:#eeb42c; stroke:none;" d="M148 391L149 392L148 391z"/>
<path style="fill:#42beb5; stroke:none;" d="M251 391L252 392L251 391z"/>
<path style="fill:#ea554a; stroke:none;" d="M252 391L253 392L252 391z"/>
<path style="fill:#42beb5; stroke:none;" d="M319 391L320 392L319 391z"/>
<path style="fill:#eeb42c; stroke:none;" d="M320 391L321 392L320 391M433 391L434 392L433 391z"/>
<path style="fill:#42beb5; stroke:none;" d="M434 391L435 392L434 391M151 392L152 393L151 392z"/>
<path style="fill:#eeb42c; stroke:none;" d="M152 392L153 393L152 392M246 392L247 393L246 392z"/>
<path style="fill:#42beb5; stroke:none;" d="M247 392L248 393L247 392z"/>
<path style="fill:#ea554a; stroke:none;" d="M248 392L249 393L248 392M322 392L323 393L322 392z"/>
<path style="fill:#eeb42c; stroke:none;" d="M323 392L324 393L323 392M429 392L430 393L429 392z"/>
<path style="fill:#42beb5; stroke:none;" d="M430 392L431 393L430 392M155 393L156 394L155 393z"/>
<path style="fill:#eeb42c; stroke:none;" d="M156 393L157 394L156 393M241.667 393.333L242.333 393.667L241.667 393.333z"/>
<path style="fill:#ea554a; stroke:none;" d="M243 393L244 394L243 393M326 393L327 394L326 393z"/>
<path style="fill:#eeb42c; stroke:none;" d="M327 393L328 394L327 393M425 393L426 394L425 393z"/>
<path style="fill:#42beb5; stroke:none;" d="M426 393L427 394L426 393z"/>
<path style="fill:#ea554a; stroke:none;" d="M159 394L160 395L159 394z"/>
<path style="fill:#42beb5; stroke:none;" d="M160 394L161 395L160 394z"/>
<path style="fill:#eeb42c; stroke:none;" d="M161 394L162 395L161 394M236 394L237 395L236 394z"/>
<path style="fill:#42beb5; stroke:none;" d="M237 394L238 395L237 394z"/>
<path style="fill:#ea554a; stroke:none;" d="M238 394L239 395L238 394M330 394L331 395L330 394z"/>
<path style="fill:#eeb42c; stroke:none;" d="M331.667 394.333L332.333 394.667L331.667 394.333M421 394L422 395L421 394z"/>
<path style="fill:#42beb5; stroke:none;" d="M422 394L423 395L422 394z"/>
<path style="fill:#ea554a; stroke:none;" d="M165 395L166 396L165 395z"/>
<path style="fill:#42beb5; stroke:none;" d="M166 395L167 396L166 395z"/>
<path style="fill:#eeb42c; stroke:none;" d="M167 395L168 396L167 395M230 395L231 396L230 395z"/>
<path style="fill:#42beb5; stroke:none;" d="M231 395L232 396L231 395z"/>
<path style="fill:#ea554a; stroke:none;" d="M232 395L233 396L232 395z"/>
<path style="fill:#42beb5; stroke:none;" d="M335 395L336 396L335 395z"/>
<path style="fill:#eeb42c; stroke:none;" d="M336 395L337 396L336 395M415.667 395.333L416.333 395.667L415.667 395.333z"/>
<path style="fill:#42beb5; stroke:none;" d="M417 395L418 396L417 395z"/>
<path style="fill:#ea554a; stroke:none;" d="M171 396L172 397L171 396z"/>
<path style="fill:#42beb5; stroke:none;" d="M172.667 396.333L173.333 396.667L172.667 396.333z"/>
<path style="fill:#eeb42c; stroke:none;" d="M174.667 396.333L175.333 396.667L174.667 396.333M222.667 396.333L223.333 396.667L222.667 396.333z"/>
<path style="fill:#42beb5; stroke:none;" d="M224 396L225 397L224 396z"/>
<path style="fill:#ea554a; stroke:none;" d="M225 396L226 397L225 396z"/>
<path style="fill:#42beb5; stroke:none;" d="M340 396L341 397L340 396z"/>
<path style="fill:#eeb42c; stroke:none;" d="M341.667 396.333L342.333 396.667L341.667 396.333M410 396L411 397L410 396z"/>
<path style="fill:#42beb5; stroke:none;" d="M411 396L412 397L411 396z"/>
<path style="fill:#ea554a; stroke:none;" d="M412 396L413 397L412 396M180 397L181 398L180 397z"/>
<path style="fill:#42beb5; stroke:none;" d="M181 397L181 398L184 398L181 397z"/>
<path style="fill:#eeb42c; stroke:none;" d="M184 397L184 398L188 398L184 397M209 397L209 398L213 398L209 397z"/>
<path style="fill:#42beb5; stroke:none;" d="M213 397L213 398L216 398L213 397z"/>
<path style="fill:#ea554a; stroke:none;" d="M216 397L217 398L216 397z"/>
<path style="fill:#42beb5; stroke:none;" d="M346.667 397.333L347.333 397.667L346.667 397.333z"/>
<path style="fill:#eeb42c; stroke:none;" d="M348.667 397.333L349.333 397.667L348.667 397.333M403.667 397.333L404.333 397.667L403.667 397.333z"/>
<path style="fill:#42beb5; stroke:none;" d="M405 397L406 398L405 397z"/>
<path style="fill:#ea554a; stroke:none;" d="M406 397L407 398L406 397M353.667 398.333L354.333 398.667L353.667 398.333z"/>
<path style="fill:#42beb5; stroke:none;" d="M355.667 398.333L356.333 398.667L355.667 398.333z"/>
<path style="fill:#eeb42c; stroke:none;" d="M357.667 398.333L358.333 398.667L357.667 398.333M393.667 398.333L394.333 398.667L393.667 398.333z"/>
<path style="fill:#42beb5; stroke:none;" d="M395 398L395 399L398 399L395 398z"/>
<path style="fill:#ea554a; stroke:none;" d="M398 398L399 399L398 398M366 399L366 400L369 400L366 399z"/>
<path style="fill:#42beb5; stroke:none;" d="M369 399L369 400L383 400L369 399z"/>
<path style="fill:#ea554a; stroke:none;" d="M383 399L383 400L386 400L383 399z"/>
</svg>
